<?xml version="1.0" encoding="UTF-8"?>
<svg version="1.1" xmlns="http://www.w3.org/2000/svg" width="1063" height="354">
<path d="M0 0 C61.19230769 0 61.19230769 0 83 21 C95.34052399 34.87580178 102.1964208 52.25196526 102.12025452 70.82077026 C102.12110894 71.5895211 102.12196337 72.35827194 102.12284368 73.15031826 C102.12448555 75.71595884 102.11899835 78.28153346 102.11352539 80.84716797 C102.11324321 82.69039407 102.11340185 84.53362028 102.1139679 86.37684631 C102.11425468 91.37427538 102.10837712 96.37168042 102.10139394 101.36910391 C102.09514064 106.59414136 102.09455503 111.81917936 102.09336853 117.04421997 C102.09026105 126.93570513 102.0820555 136.82717923 102.07201904 146.71865952 C102.06083982 157.98097708 102.05534289 169.24329517 102.05032361 180.5056169 C102.03987242 203.6704174 102.02228424 226.83520808 102 250 C104.18734942 250.16477173 106.37488799 250.32703326 108.5625 250.48828125 C109.78066406 250.57891846 110.99882812 250.66955566 112.25390625 250.76293945 C135.76852515 252.25099309 157.91262474 248.26796709 176.3125 232.75 C188.60721111 221.10548996 194.78092058 204.91010269 195.3125 188.1875 C194.93089174 169.7510508 187.67495063 154.05629985 175.1875 140.75 C161.70749754 127.90064093 143.90727284 122.94413577 126 120 C125.66159814 116.83788427 125.70142219 115.41727171 127.58203125 112.7890625 C146.03351992 94.88691763 169.53894087 89.47741204 194.66015625 89.84765625 C226.48593365 90.72107858 257.08855024 100.87765491 279.6171875 124.203125 C295.59310355 142.95518384 301.61491854 165.19062111 299.7265625 189.5234375 C297.01502562 212.2901151 285.0970239 232.04906919 267.20703125 246.2109375 C223.1574985 278.03379386 165.96358039 282.23527 113.375 282.1875 C112.14879944 282.18689575 110.92259888 282.1862915 109.65924072 282.18566895 C91.34902953 282.16117128 73.22977963 281.83510104 55 280 C54.27037048 279.92740967 53.54074097 279.85481934 52.78900146 279.7800293 C6.49042417 275.16347472 6.49042417 275.16347472 0 273 C0 182.91 0 92.82 0 0 Z " fill="#DB0632" transform="translate(25,9)"/>
<path d="M0 0 C1.22111481 0.00007553 2.44222961 0.00015106 3.7003479 0.00022888 C5.03769979 0.00533587 6.37505127 0.01055187 7.71240234 0.01586914 C9.07717843 0.01773399 10.44195518 0.01915758 11.80673218 0.02015686 C15.40049077 0.02397676 18.99420902 0.03380256 22.58795166 0.04486084 C26.25442967 0.05508628 29.92091419 0.05965691 33.58740234 0.06469727 C40.78273325 0.07542529 47.97803089 0.0924954 55.17333984 0.11352539 C47.86481301 14.96449351 47.86481301 14.96449351 43.67333984 21.86352539 C42.81148443 23.30683283 41.95089353 24.75089583 41.09130859 26.19555664 C40.62772949 26.97366699 40.16415039 27.75177734 39.68652344 28.5534668 C36.74560655 33.52901608 33.86964423 38.54223436 30.98583984 43.55102539 C30.34839844 44.65736328 29.71095703 45.76370117 29.05419922 46.90356445 C27.74554355 49.17508216 26.43711435 51.44673036 25.12890625 53.71850586 C21.98001931 59.18522519 18.82650721 64.64927426 15.67333984 70.11352539 C14.42331634 72.2801785 13.17331638 74.44684518 11.92333984 76.61352539 C4.42333984 89.61352539 -3.07666016 102.61352539 -10.57666016 115.61352539 C-11.19549072 116.68618652 -11.81432129 117.75884766 -12.4519043 118.86401367 C-13.70101534 121.0290961 -14.95020145 123.19413521 -16.19946289 125.35913086 C-19.33868325 130.79968245 -22.47656578 136.24099755 -25.61181641 141.68383789 C-28.11071546 146.02192665 -30.6136527 150.35764641 -33.11962891 154.69165039 C-35.61463343 159.00712066 -38.09422428 163.33098457 -40.56494141 167.66040039 C-48.83300362 182.08880699 -57.38126322 194.96570337 -68.82666016 207.11352539 C-69.43767578 207.78899414 -70.04869141 208.46446289 -70.67822266 209.16040039 C-89.90948394 229.61918899 -119.96559787 241.37758038 -147.67120361 242.36773682 C-166.81474842 242.92111891 -184.31711751 242.86829671 -201.82666016 234.11352539 C-201.82666016 219.59352539 -201.82666016 205.07352539 -201.82666016 190.11352539 C-197.17936013 191.6626254 -192.64926006 193.32307136 -188.09619141 195.11352539 C-179.46594176 197.75312385 -170.9406038 198.4766551 -161.95166016 198.42602539 C-160.37239746 198.41756592 -160.37239746 198.41756592 -158.76123047 198.40893555 C-139.87549924 198.1143018 -125.17156095 191.38100539 -111.82666016 178.11352539 C-105.1015464 171.13366303 -105.1015464 171.13366303 -99.82666016 163.11352539 C-100.81666016 163.44352539 -101.80666016 163.77352539 -102.82666016 164.11352539 C-114.44577336 165.16980841 -124.73409931 159.96466426 -133.82666016 153.11352539 C-142.92267555 145.48027033 -150.07330586 135.34365615 -156.06103516 125.16040039 C-156.44394211 124.5157634 -156.82684906 123.8711264 -157.22135925 123.20695496 C-158.02455007 121.85393649 -158.82622792 120.50001881 -159.62643433 119.14523315 C-160.79339874 117.16982937 -161.96461565 115.19702026 -163.13745117 113.22509766 C-165.0734795 109.96914688 -167.00617391 106.71123381 -168.93774414 103.45263672 C-174.5455358 93.99312065 -180.15682315 84.53603089 -185.82666016 75.11352539 C-191.89270126 65.03258203 -197.89189585 54.91205794 -203.89111328 44.79125977 C-210.10451793 34.31180683 -216.32551139 23.83592809 -222.67431641 13.43774414 C-223.05136719 12.81834961 -223.42841797 12.19895508 -223.81689453 11.56079102 C-224.56382378 10.33495632 -225.31408089 9.11114579 -226.06689453 7.88891602 C-228.82666016 3.33797976 -228.82666016 3.33797976 -228.82666016 1.11352539 C-217.09047932 1.02038822 -205.35438803 0.94954008 -193.61791134 0.9062767 C-188.16677122 0.88550078 -182.71588603 0.85736798 -177.26489258 0.81176758 C-171.99342444 0.76795057 -166.72219979 0.74431335 -161.45056343 0.73401642 C-159.45054867 0.72668887 -157.45054554 0.71238211 -155.45063591 0.69060516 C-135.14607488 0.47852671 -118.67928071 3.41408064 -103.21337891 17.67211914 C-96.56887251 24.46887282 -91.74735612 31.82115147 -86.88916016 39.98852539 C-86.14658224 41.22759757 -85.40349153 42.46636256 -84.65991211 43.70483398 C-83.51682079 45.60981721 -82.37466943 47.51533131 -81.23545837 49.42263794 C-78.68981871 53.68446169 -76.11443891 57.92693392 -73.52197266 62.16040039 C-72.18599872 64.35308653 -70.85005962 66.54579388 -69.51416016 68.73852539 C-68.89871338 69.7373877 -68.2832666 70.73625 -67.64916992 71.76538086 C-58.82666016 86.3352734 -58.82666016 86.3352734 -58.82666016 92.11352539 C-58.16666016 92.11352539 -57.50666016 92.11352539 -56.82666016 92.11352539 C-56.45154297 90.85668945 -56.07642578 89.59985352 -55.68994141 88.30493164 C-53.75891396 82.53211666 -50.95630218 77.36344537 -48.01416016 72.05102539 C-47.4422998 71.00664307 -46.87043945 69.96226074 -46.28125 68.88623047 C-41.73317399 60.63100843 -37.00593255 52.48591474 -32.22241211 44.36547852 C-26.30386685 34.2951425 -20.65113672 24.08494015 -15.00634766 13.85961914 C-14.45301758 12.86043457 -13.8996875 11.86125 -13.32958984 10.83178711 C-12.40785089 9.16469135 -11.49073022 7.49501909 -10.58154297 5.82104492 C-7.56614729 0.35025563 -6.12564573 -0.01260421 0 0 Z " fill="#DB0632" transform="translate(547.82666015625,102.886474609375)"/>
<path d="M0 0 C2.58229518 0.00204368 5.16520013 0.07469907 7.74414062 0.20629883 C9.12267331 0.23058613 10.50131924 0.24907205 11.88000488 0.26203918 C15.48674509 0.31138138 19.08653537 0.43873795 22.69055176 0.58319092 C26.37672864 0.71686904 30.06404449 0.77569245 33.75195312 0.84106445 C40.97124798 0.9799521 48.1848412 1.20138376 55.40039062 1.47583008 C54.44848455 3.39363098 53.49496634 5.31063176 52.54077148 7.22729492 C52.00995468 8.29491058 51.47913788 9.36252625 50.93223572 10.4624939 C49.08188982 14.1023621 47.07435315 17.60845907 44.96289062 21.10083008 C44.09197122 22.56239826 43.22226111 24.02468745 42.35351562 25.48754883 C41.88365234 26.27822754 41.41378906 27.06890625 40.9296875 27.88354492 C37.98686555 32.87187243 35.10305531 37.89437416 32.21289062 42.91333008 C31.57552979 44.01950684 30.93816895 45.12568359 30.28149414 46.26538086 C28.97276647 48.53706673 27.66425578 50.80887762 26.35595703 53.08081055 C23.20707009 58.54752987 20.05355799 64.01157895 16.90039062 69.47583008 C15.65036713 71.64248319 14.40036716 73.80914987 13.15039062 75.97583008 C5.65039062 88.97583008 -1.84960938 101.97583008 -9.34960938 114.97583008 C-9.96843994 116.04849121 -10.58727051 117.12115234 -11.22485352 118.22631836 C-12.47396456 120.39140078 -13.72315067 122.5564399 -14.97241211 124.72143555 C-18.11163247 130.16198714 -21.249515 135.60330224 -24.38476562 141.04614258 C-27.50132105 146.45637662 -30.62500065 151.86246248 -33.75 157.26782227 C-35.60870433 160.49160459 -37.4562781 163.72158258 -39.30273438 166.95239258 C-58.73568274 200.82765564 -82.08571707 228.22690929 -121.27148438 239.37426758 C-147.44018653 246.29284226 -176.68984473 246.54683659 -201.59960938 235.47583008 C-201.59960938 220.62583008 -201.59960938 205.77583008 -201.59960938 190.47583008 C-196.64960937 192.45583008 -191.69960938 194.43583008 -186.59960938 196.47583008 C-166.86614669 201.82100992 -145.20119215 201.41224879 -126.94726562 191.61645508 C-121.15531637 187.91285159 -116.35642007 183.41075564 -111.59960938 178.47583008 C-111.11379395 177.97374023 -110.62797852 177.47165039 -110.12744141 176.9543457 C-104.37938559 171.35039551 -104.37938559 171.35039551 -100.59960938 164.47583008 C-101.7984375 164.5628418 -101.7984375 164.5628418 -103.02148438 164.65161133 C-116.91651078 165.2224164 -126.35543532 159.99356885 -136.40429688 150.95239258 C-141.76761884 145.94222352 -146.38626646 140.72535725 -150.38476562 134.56567383 C-150.80902328 133.9203772 -151.23328094 133.27508057 -151.6703949 132.61022949 C-156.39136103 125.36599682 -160.78912337 117.9332445 -165.16210938 110.47583008 C-166.35090061 108.45768931 -167.54090462 106.44026684 -168.73092651 104.42285156 C-169.52042811 103.08411644 -170.30943039 101.74508672 -171.09793091 100.40576172 C-174.10942167 95.29353441 -177.15532637 90.20268005 -180.21290588 85.11791992 C-184.94169055 77.25058187 -189.61663521 69.3513079 -194.29736328 61.45532227 C-201.53359241 49.25027485 -208.78278247 37.0541542 -216.19726562 24.95629883 C-216.94273243 23.73821462 -217.68817533 22.52011577 -218.43359375 21.30200195 C-219.56380199 19.45517346 -220.69540582 17.60926421 -221.83081055 15.765625 C-222.9570199 13.93580025 -224.07764632 12.10266104 -225.19726562 10.26879883 C-225.85218994 9.20169678 -226.50711426 8.13459473 -227.18188477 7.03515625 C-228.59960938 4.47583008 -228.59960938 4.47583008 -228.59960938 2.47583008 C-216.58538852 2.38275466 -204.57125481 2.31187557 -192.55674553 2.26858139 C-186.97666474 2.24779224 -181.39683239 2.21963451 -175.81689453 2.17407227 C-170.42223832 2.13030341 -165.02781962 2.10662792 -159.63299942 2.09632111 C-157.58471061 2.08898508 -155.53643337 2.0746611 -153.48824692 2.05290985 C-133.71683033 1.85147651 -116.84813786 4.79427312 -101.88012695 19.03393555 C-93.99172173 27.48055037 -88.14071668 38.24594277 -82.22460938 48.10083008 C-81.48485665 49.32792592 -80.74502814 50.55497609 -80.00512695 51.78198242 C-77.86178814 55.34174653 -75.72982324 58.90819654 -73.59960938 62.47583008 C-73.01195801 63.45680664 -72.42430664 64.4377832 -71.81884766 65.44848633 C-70.29858596 67.99370012 -68.78982035 70.54522415 -67.28710938 73.10083008 C-66.64926514 74.17131592 -66.64926514 74.17131592 -65.99853516 75.26342773 C-58.59960938 87.99247099 -58.59960938 87.99247099 -58.59960938 93.47583008 C-57.93960938 93.47583008 -57.27960938 93.47583008 -56.59960938 93.47583008 C-56.34981323 92.6503064 -56.34981323 92.6503064 -56.0949707 91.80810547 C-54.31851679 86.18595448 -52.08096511 81.09731498 -49.28710938 75.91333008 C-48.85615967 75.10379883 -48.42520996 74.29426758 -47.98120117 73.46020508 C-43.88806294 65.85362803 -39.52566113 58.40839659 -35.13891602 50.96850586 C-29.90253317 42.0675738 -24.88146749 33.05812964 -19.92504883 23.99926758 C-18.79566121 21.94566417 -17.64955029 19.90112367 -16.48298645 17.8684082 C-15.24583091 15.63988643 -14.08286841 13.36822705 -13.00521851 11.05834961 C-9.81018294 4.78929616 -7.5602267 0.73301498 0 0 Z " fill="#DB0632" transform="translate(980.599609375,100.524169921875)"/>
<path d="M0 0 C5.84915373 -0.10009741 11.69779119 -0.17203914 17.54760742 -0.21972656 C19.53076887 -0.23964008 21.5138732 -0.26678102 23.49682617 -0.30175781 C38.68214755 -0.56258172 52.35386879 0.41294718 66.125 7.5 C67.10811157 8.00104248 67.10811157 8.00104248 68.11108398 8.51220703 C83.60937149 16.8792196 94.55268116 31.26890308 99.9375 47.89453125 C102.22060193 55.91831736 103.15022372 63.61092554 103.12025452 71.92808533 C103.12110894 72.80386295 103.12196337 73.67964058 103.12284368 74.58195692 C103.12448511 77.50379642 103.11899907 80.42557794 103.11352539 83.34741211 C103.1132432 85.44694009 103.11340187 87.54646817 103.1139679 89.64599609 C103.11425464 95.33755748 103.10837769 101.02909776 103.10139394 106.72065425 C103.09514002 112.67172434 103.09455499 118.62279493 103.09336853 124.5738678 C103.09026123 135.83945854 103.08205593 147.10503957 103.07201904 158.37062603 C103.05874855 173.59637222 103.05335314 188.82212107 103.04751682 204.04787159 C103.03811566 228.03192167 103.0181927 252.01595125 103 276 C69.34 276 35.68 276 1 276 C0.8262415 255.87504247 0.65698231 235.75008867 0.5 215.625 C0.49405146 214.8640355 0.48810292 214.103071 0.48197412 213.31904697 C0.08425077 162.33730304 -0.09159755 111.35826763 -0.0625 60.375 C-0.06207577 59.6091713 -0.06165154 58.84334261 -0.06121445 58.05430698 C-0.05030938 38.70285855 -0.03054414 19.35142817 0 0 Z " fill="#DB0632" transform="translate(626,8)"/>
<path d="M0 0 C6.48834817 6.67372955 8.52703621 13.12373088 8.57250977 22.34155273 C8.41264087 29.53910971 6.32133823 34.75141575 1.54296875 40.0859375 C-4.16189701 45.36583584 -10.9901635 48.22176052 -18.8125 48.25 C-26.23666866 47.69739198 -32.33765089 45.36961081 -37.8125 40.25 C-43.56107494 32.59328464 -45.79546578 25.77930715 -44.8125 16.25 C-42.57986738 7.97469867 -38.77978697 1.7825574 -31.25 -2.5625 C-20.56036893 -8.28710312 -10.00625086 -6.22611165 0 0 Z M-35.6875 6.125 C-40.10768904 11.60240965 -41.34916501 16.61690677 -41.19140625 23.58984375 C-40.34242002 29.55025221 -37.45471514 35.11113053 -33 39.1875 C-27.02416386 43.0542175 -21.06437006 45.44040131 -13.8125 44.25 C-5.84293028 42.05767892 -0.84527895 37.36389278 3.3203125 30.33984375 C5.87009526 24.74640138 5.57410049 19.1495114 4.1875 13.25 C1.62669546 6.86447451 -3.00482205 2.76133667 -8.8125 -0.75 C-19.20779807 -4.21509936 -28.40205566 -1.68403891 -35.6875 6.125 Z " fill="#DB0632" transform="translate(1028.8125,234.75)"/>
<path d="M0 0 C2.701875 -0.061875 5.40375 -0.12375 8.1875 -0.1875 C9.02949951 -0.21481201 9.87149902 -0.24212402 10.73901367 -0.27026367 C15.29759115 -0.32065565 18.34957739 -0.04201884 22 3 C23.553338 6.64696749 24.2406387 8.91712584 23.375 12.8125 C22 15 22 15 18 17 C20.31 20.63 22.62 24.26 25 28 C19.88819977 28.70507589 19.88819977 28.70507589 17 28 C15.1497038 26.08987898 13.82423696 24.08073248 12.38671875 21.84765625 C11.05912376 19.72073211 11.05912376 19.72073211 8.125 19 C7.42375 19 6.7225 19 6 19 C6 21.97 6 24.94 6 28 C4.02 28 2.04 28 0 28 C0 18.76 0 9.52 0 0 Z M6 6 C6 8.31 6 10.62 6 13 C7.45792884 13.05399736 8.91642712 13.09279177 10.375 13.125 C11.59316406 13.15980469 11.59316406 13.15980469 12.8359375 13.1953125 C15.21342243 13.21370051 15.21342243 13.21370051 17 11 C16.67958603 8.39719432 16.67958603 8.39719432 16 6 C12.7 6 9.4 6 6 6 Z " fill="#DB0632" transform="translate(1000,241)"/>
</svg>
