<?xml version="1.0" encoding="UTF-8"?>
<svg version="1.1" xmlns="http://www.w3.org/2000/svg" width="284" height="150">
<path d="M0 0 C93.72 0 187.44 0 284 0 C284 49.5 284 99 284 150 C190.28 150 96.56 150 0 150 C0 100.5 0 51 0 0 Z " fill="#1C3D8F" transform="translate(0,0)"/>
<path d="M0 0 C93.72 0 187.44 0 284 0 C284 49.5 284 99 284 150 C190.28 150 96.56 150 0 150 C0 100.5 0 51 0 0 Z M162.8125 43 C142.17569886 46.64944149 122.06092295 49.36434811 101.07275391 49.26074219 C98.50008609 49.25000036 95.92811609 49.26073789 93.35546875 49.2734375 C77.71170237 49.28726758 62.13854373 48.09036992 46.75 45.1875 C45.84596436 45.0215332 44.94192871 44.85556641 44.01049805 44.68457031 C36.82381191 43.30092854 29.936356 41.32484722 23.01953125 38.953125 C20.05092145 37.84949336 20.05092145 37.84949336 17 38 C15.88287552 45.17311511 15.8552899 52.23441498 15.8671875 59.484375 C15.86623077 60.77635803 15.86527405 62.06834106 15.86428833 63.3994751 C15.86282078 66.12602952 15.86493403 68.852551 15.86962891 71.57910156 C15.87530281 75.03937303 15.87205603 78.49956649 15.86605644 81.95983505 C15.86152839 85.30135424 15.86472038 88.64285361 15.8671875 91.984375 C15.86516327 93.2097699 15.86313904 94.43516479 15.86105347 95.69769287 C15.01893387 108.88451556 15.01893387 108.88451556 19.125 120.58984375 C53.25185435 137.32869486 100.10032156 133.1889115 137.13818359 133.13037109 C140.77136943 133.12467437 144.40448201 133.12807287 148.03766537 133.13380241 C170.88063705 133.16451083 193.68713434 132.87487446 216.4375 130.625 C217.44328598 130.52745926 217.44328598 130.52745926 218.46939087 130.427948 C245.28797614 129.19439172 245.28797614 129.19439172 268 118 C269.55695113 110.76458738 269.14645865 102.99392621 269.1328125 95.6328125 C269.13376923 94.47683563 269.13472595 93.32085876 269.13571167 92.12985229 C269.13638863 89.697733 269.13456829 87.26561186 269.13037109 84.83349609 C269.12502587 81.14286164 269.13032762 77.45234942 269.13671875 73.76171875 C269.13605769 71.3854164 269.13477596 69.00911413 269.1328125 66.6328125 C269.13584885 65.00099533 269.13584885 65.00099533 269.13894653 63.33621216 C269.1228927 57.9991085 269.01371903 52.66586739 268.74169922 47.33544922 C268.69649139 46.35889374 268.65128357 45.38233826 268.60470581 44.37619019 C268.24344623 41.85487448 268.24344623 41.85487448 266.08181763 40.70388794 C253.02412843 36.28892391 238.60945424 36.90007808 225 36.8125 C223.86908936 36.79944824 222.73817871 36.78639648 221.57299805 36.77294922 C201.72759489 36.7536269 182.30801252 39.53413111 162.8125 43 Z " fill="#FDFDFE" transform="translate(0,0)"/>
<path d="M0 0 C0.80903778 -0.00163147 1.61807556 -0.00326294 2.45162964 -0.00494385 C14.61291165 -0.00215772 26.37906826 0.88286648 38.3125 3.375 C38.3125 4.035 38.3125 4.695 38.3125 5.375 C39.32957031 5.48714844 39.32957031 5.48714844 40.3671875 5.6015625 C47.52896236 6.61333679 53.71934021 8.60686161 59.3125 13.375 C59.3125 14.365 59.3125 15.355 59.3125 16.375 C58.58968338 16.38308685 57.86686676 16.39117371 57.12214661 16.39950562 C50.2536209 16.47799612 43.38525886 16.56544242 36.51697254 16.66252708 C32.98734648 16.7121145 29.45774505 16.75844189 25.92797852 16.796875 C21.85415282 16.84138384 17.78065749 16.90087023 13.70703125 16.9609375 C11.83903618 16.97826431 11.83903618 16.97826431 9.93330383 16.99594116 C1.90050708 17.12891964 -5.78283069 17.96343149 -13.6875 19.375 C-15.79024844 19.73245473 -17.89309899 20.08930977 -19.99609375 20.4453125 C-23.08615712 20.97571117 -26.17560318 21.50887996 -29.26367188 22.05078125 C-34.12079425 22.87951413 -38.73803983 23.6296892 -43.6875 23.375 C-43.6875 24.035 -43.6875 24.695 -43.6875 25.375 C-76.26256886 34.68287935 -122.96489778 33.00136317 -155.4375 24.625 C-156.77868896 24.283479 -156.77868896 24.283479 -158.14697266 23.93505859 C-164.32988051 22.18601559 -169.79200026 19.61657749 -174.6875 15.375 C-174.6875 14.715 -174.6875 14.055 -174.6875 13.375 C-171.4883036 12.3086012 -169.29118148 12.27893609 -165.93212891 12.32495117 C-164.1508812 12.34443062 -164.1508812 12.34443062 -162.33364868 12.36430359 C-161.04018524 12.38201309 -159.7467218 12.3997226 -158.4140625 12.41796875 C-157.05293651 12.43002597 -155.69180071 12.44101738 -154.33065796 12.45100403 C-148.57163141 12.49338912 -142.8128063 12.53900553 -137.05419922 12.62182617 C-118.21092187 12.88426672 -100.35328212 11.87786616 -81.70988464 8.83831787 C-76.54359046 8.04634838 -71.35289791 7.52945774 -66.14865112 7.06074524 C-63.24029364 6.77312916 -60.65445844 6.36363891 -57.88427734 5.41113281 C-52.01737183 3.50956362 -45.8543305 2.98736712 -39.75 2.25 C-38.65176407 2.11643097 -38.65176407 2.11643097 -37.53134155 1.98016357 C-25.0176665 0.50210016 -12.59575762 -0.01187604 0 0 Z " fill="#4B93CF" transform="translate(201.6875,12.625)"/>
<path d="M0 0 C0.80903778 -0.00163147 1.61807556 -0.00326294 2.45162964 -0.00494385 C14.61291165 -0.00215772 26.37906826 0.88286648 38.3125 3.375 C38.3125 4.035 38.3125 4.695 38.3125 5.375 C39.32957031 5.48714844 39.32957031 5.48714844 40.3671875 5.6015625 C47.52896236 6.61333679 53.71934021 8.60686161 59.3125 13.375 C59.3125 14.365 59.3125 15.355 59.3125 16.375 C58.58968338 16.38308685 57.86686676 16.39117371 57.12214661 16.39950562 C50.2536209 16.47799612 43.38525886 16.56544242 36.51697254 16.66252708 C32.98734648 16.7121145 29.45774505 16.75844189 25.92797852 16.796875 C21.85415282 16.84138384 17.78065749 16.90087023 13.70703125 16.9609375 C11.83903618 16.97826431 11.83903618 16.97826431 9.93330383 16.99594116 C1.90050708 17.12891964 -5.78283069 17.96343149 -13.6875 19.375 C-15.79024844 19.73245473 -17.89309899 20.08930977 -19.99609375 20.4453125 C-23.08615712 20.97571117 -26.17560318 21.50887996 -29.26367188 22.05078125 C-34.12079425 22.87951413 -38.73803983 23.6296892 -43.6875 23.375 C-43.6875 24.035 -43.6875 24.695 -43.6875 25.375 C-76.26256886 34.68287935 -122.96489778 33.00136317 -155.4375 24.625 C-156.77868896 24.283479 -156.77868896 24.283479 -158.14697266 23.93505859 C-164.32988051 22.18601559 -169.79200026 19.61657749 -174.6875 15.375 C-174.6875 14.715 -174.6875 14.055 -174.6875 13.375 C-171.4883036 12.3086012 -169.29118148 12.27893609 -165.93212891 12.32495117 C-164.1508812 12.34443062 -164.1508812 12.34443062 -162.33364868 12.36430359 C-161.04018524 12.38201309 -159.7467218 12.3997226 -158.4140625 12.41796875 C-157.05293651 12.43002597 -155.69180071 12.44101738 -154.33065796 12.45100403 C-148.57163141 12.49338912 -142.8128063 12.53900553 -137.05419922 12.62182617 C-118.21092187 12.88426672 -100.35328212 11.87786616 -81.70988464 8.83831787 C-76.54359046 8.04634838 -71.35289791 7.52945774 -66.14865112 7.06074524 C-63.24029364 6.77312916 -60.65445844 6.36363891 -57.88427734 5.41113281 C-52.01737183 3.50956362 -45.8543305 2.98736712 -39.75 2.25 C-38.65176407 2.11643097 -38.65176407 2.11643097 -37.53134155 1.98016357 C-25.0176665 0.50210016 -12.59575762 -0.01187604 0 0 Z M-61.35717773 7.83837891 C-70.20850695 9.3601988 -79.079379 10.41647179 -88.01220703 11.33569336 C-89.03040527 11.44405518 -90.04860352 11.55241699 -91.09765625 11.6640625 C-91.98590088 11.75381348 -92.87414551 11.84356445 -93.78930664 11.93603516 C-96.87127133 12.34819602 -96.87127133 12.34819602 -100.53198242 13.40234375 C-104.60930101 14.45522004 -108.56861949 14.65450307 -112.765625 14.6484375 C-114.27084111 14.66870122 -115.77604942 14.68955146 -117.28125 14.7109375 C-119.62051092 14.73362005 -121.95946179 14.7500545 -124.29882812 14.75585938 C-126.57997429 14.76537208 -128.85977956 14.79909283 -131.140625 14.8359375 C-131.83859192 14.83089203 -132.53655884 14.82584656 -133.25567627 14.82064819 C-136.67325427 14.88989571 -138.41981187 15.16828469 -141.15917969 17.28369141 C-142.88417692 19.21242053 -142.88417692 19.21242053 -142.6875 21.375 C-131.07870524 26.6460726 -116.1157161 25.81455472 -103.5625 25.8125 C-102.73033966 25.81389984 -101.89817932 25.81529968 -101.040802 25.81674194 C-82.75617583 25.79186608 -64.95806473 23.61999967 -46.92987061 20.73291016 C-44.69131713 20.37560926 -42.45162428 20.02651264 -40.21142578 19.6796875 C-33.63405202 18.65848877 -27.06171341 17.60598936 -20.5 16.48828125 C-19.02466797 16.23751831 -19.02466797 16.23751831 -17.51953125 15.98168945 C-14.48151705 15.33087348 -11.6298813 14.36478716 -8.6875 13.375 C-6.14453125 13.21484375 -6.14453125 13.21484375 -3.5 13.3125 C2.08360355 13.41058087 7.613445 13.22929329 13.1875 12.9375 C13.99598389 12.89810303 14.80446777 12.85870605 15.63745117 12.81811523 C19.92941799 12.58716337 24.08144816 12.18447776 28.3125 11.375 C28.3125 10.055 28.3125 8.735 28.3125 7.375 C25.93774166 6.89460995 23.56270845 6.41565526 21.1875 5.9375 C20.18976563 5.73543945 20.18976563 5.73543945 19.171875 5.52929688 C17.2202375 5.137056 15.26638097 4.75590811 13.3125 4.375 C11.92804688 4.08496094 11.92804688 4.08496094 10.515625 3.7890625 C-12.82684757 0.77162092 -38.31130696 3.8578797 -61.35717773 7.83837891 Z " fill="#6FA8D8" transform="translate(201.6875,12.625)"/>
<path d="M0 0 C4.47111059 2.3733635 8.23475102 5.13271154 10 10 C10.86249682 17.37207809 11.15303974 24.42330902 6.47265625 30.51171875 C2.76427139 34.25944987 -0.81639591 35.18963006 -5.9375 35.5 C-10.37139905 35.34641615 -13.20406344 34.40519747 -16.59375 31.53515625 C-21.09181321 26.62477058 -21.61311541 21.14284875 -21.41015625 14.71875 C-20.63521366 9.58198766 -18.2990522 6.01380999 -14.42578125 2.62109375 C-9.9747542 -0.35663297 -5.22204699 -1.19820941 0 0 Z " fill="#F2F4F8" transform="translate(171,71)"/>
<path d="M0 0 C16 0 16 0 21 3 C23 5 23 5 23.3125 8.3125 C22.96519718 12.4106733 22.77583154 13.97924214 20 17 C15.33145463 19.44200835 11.29627302 21 6 21 C6 24.96 6 28.92 6 33 C4.02 33 2.04 33 0 33 C0 22.11 0 11.22 0 0 Z " fill="#EFF2F7" transform="translate(95,72)"/>
<path d="M0 0 C1.98 0 3.96 0 6 0 C8.125 2.30859375 8.125 2.30859375 10 5.4375 C10.6703125 6.52417969 11.340625 7.61085938 12.03125 8.73046875 C12.6809375 9.80941406 13.330625 10.88835937 14 12 C15.1564694 13.75675543 16.32181627 15.50773302 17.5 17.25 C18.7375 19.10625 18.7375 19.10625 20 21 C20.33 14.07 20.66 7.14 21 0 C22.65 0 24.3 0 26 0 C26 10.89 26 21.78 26 33 C21 33 21 33 19.37841797 31.51879883 C18.92096191 30.83841553 18.46350586 30.15803223 17.9921875 29.45703125 C17.48042969 28.71259766 16.96867187 27.96816406 16.44140625 27.20117188 C15.66603516 26.0187793 15.66603516 26.0187793 14.875 24.8125 C14.08802734 23.65911133 14.08802734 23.65911133 13.28515625 22.48242188 C10.72998758 18.71435668 8.3448979 14.90816316 6 11 C5.67 18.26 5.34 25.52 5 33 C3.35 33 1.7 33 0 33 C0 22.11 0 11.22 0 0 Z " fill="#EFF1F7" transform="translate(189,72)"/>
<path d="M0 0 C2.64 0 5.28 0 8 0 C8.37511719 1.01578125 8.75023437 2.0315625 9.13671875 3.078125 C9.65316278 4.46892947 10.17012711 5.8595408 10.6875 7.25 C10.95643066 7.97421143 11.22536133 8.69842285 11.50244141 9.44458008 C13.53071838 14.86147635 15.74399405 20.1729679 18.1171875 25.44921875 C19.04608314 28.13315171 19.17264062 30.18189584 19 33 C17.02 33 15.04 33 13 33 C12.34 29.7 11.68 26.4 11 23 C6.38 23.33 1.76 23.66 -3 24 C-3.99 26.97 -4.98 29.94 -6 33 C-7.98 33 -9.96 33 -12 33 C-11.35103331 29.1458785 -10.22045318 25.76582213 -8.75 22.1484375 C-8.3065625 21.05015625 -7.863125 19.951875 -7.40625 18.8203125 C-6.9421875 17.68335937 -6.478125 16.54640625 -6 15.375 C-5.08266837 13.11224863 -4.16597172 10.84923971 -3.25 8.5859375 C-2.84265625 7.5861084 -2.4353125 6.5862793 -2.015625 5.55615234 C-1.28815108 3.7252264 -0.6230175 1.86905251 0 0 Z " fill="#F3F4F9" transform="translate(232,72)"/>
<path d="M0 0 C3.54321815 2.20466907 5.41094918 4.18487798 7 8 C7.73769377 12.64060847 7.47109905 16.75763643 5.25 20.9375 C2.04134548 25.30483532 2.04134548 25.30483532 -1 26 C-5.37842644 26 -7.44544933 25.42476222 -10.9375 22.75 C-13.93968048 18.66425107 -13.56065723 14.00201425 -13.56640625 9.12109375 C-12.88959208 5.39161431 -11.6114944 3.69935777 -9 1 C-5.89951072 -0.55024464 -3.42105782 -0.28992015 0 0 Z " fill="#1D3E8F" transform="translate(169,76)"/>
<path d="M0 0 C0.66 0.33 1.32 0.66 2 1 C2 2.65 2 4.3 2 6 C-2.29 6 -6.58 6 -11 6 C-11 7.65 -11 9.3 -11 11 C-10.25234375 11.38671875 -9.5046875 11.7734375 -8.734375 12.171875 C-7.74953125 12.69265625 -6.7646875 13.2134375 -5.75 13.75 C-4.77546875 14.26046875 -3.8009375 14.7709375 -2.796875 15.296875 C0.65478318 17.39872272 3.4915506 19.15439473 4.6015625 23.18359375 C4.64530967 27.39061283 4.34006212 29.49505928 1.9375 33.0625 C-3.18827388 36.70416904 -11.00251256 35.3433676 -17 35 C-17.495 33.515 -17.495 33.515 -18 32 C-17.01 30.515 -17.01 30.515 -16 29 C-13.37302936 28.77862607 -10.99106036 28.71837975 -8.375 28.8125 C-7.66859375 28.82603516 -6.9621875 28.83957031 -6.234375 28.85351562 C-4.48925872 28.8888896 -2.74453392 28.94269779 -1 29 C-1.86701955 25.31644948 -2.34318928 23.46254276 -5.49609375 21.2421875 C-6.46675781 20.79101562 -7.43742187 20.33984375 -8.4375 19.875 C-12.29207952 18.05806105 -14.84280995 16.75379453 -17 13 C-17.45505636 9.81460549 -17.70482074 8.01639382 -17 5 C-12.40096047 -0.96632155 -7.17021276 -0.82012237 0 0 Z " fill="#F1F3F8" transform="translate(54,71)"/>
<path d="M0 0 C6.6 0 13.2 0 20 0 C20 1.65 20 3.3 20 5 C15.05 5 10.1 5 5 5 C5 7.97 5 10.94 5 14 C8.96 14 12.92 14 17 14 C17 15.32 17 16.64 17 18 C13.04 18 9.08 18 5 18 C5 21.63 5 25.26 5 29 C10.28 29 15.56 29 21 29 C21 30.32 21 31.64 21 33 C14.07 33 7.14 33 0 33 C0 22.11 0 11.22 0 0 Z " fill="#F6F7FA" transform="translate(66,72)"/>
<path d="M0 0 C0.81733612 -0.0033284 1.63467224 -0.0066568 2.47677612 -0.01008606 C4.1961003 -0.01511332 5.9154341 -0.0174957 7.63476562 -0.01733398 C10.21501474 -0.01950835 12.79482688 -0.03767601 15.375 -0.05664062 C27.21000526 -0.09655561 38.50234959 0.75352652 50.1171875 3.16796875 C50.1171875 3.82796875 50.1171875 4.48796875 50.1171875 5.16796875 C50.79523438 5.24273438 51.47328125 5.3175 52.171875 5.39453125 C59.33364986 6.40630554 65.52402771 8.39983036 71.1171875 13.16796875 C71.1171875 14.15796875 71.1171875 15.14796875 71.1171875 16.16796875 C51.6471875 16.16796875 32.1771875 16.16796875 12.1171875 16.16796875 C12.1171875 15.83796875 12.1171875 15.50796875 12.1171875 15.16796875 C13.21184326 15.11785645 14.30649902 15.06774414 15.43432617 15.01611328 C19.50688142 14.82735288 23.5788029 14.62706397 27.65063477 14.42333984 C29.4109003 14.33687293 31.17132106 14.25350676 32.93188477 14.17333984 C35.4667838 14.05736875 38.0009099 13.93014942 40.53515625 13.80078125 C41.31867966 13.76735626 42.10220306 13.73393127 42.9094696 13.69949341 C47.02402489 13.47781106 50.39938952 12.98642172 54.1171875 11.16796875 C47.33975878 3.5167206 32.72654684 2.87899182 23.1171875 2.16796875 C19.80054705 2.0524208 16.49019316 2.0500492 13.171875 2.0703125 C11.82804245 2.07243492 11.82804245 2.07243492 10.45706177 2.07460022 C7.63540097 2.08013434 4.81382374 2.09267386 1.9921875 2.10546875 C0.06250116 2.11049229 -1.86718645 2.11505369 -3.796875 2.11914062 C-8.492219 2.13008206 -13.18750165 2.14729997 -17.8828125 2.16796875 C-17.8828125 1.83796875 -17.8828125 1.50796875 -17.8828125 1.16796875 C-11.8870648 0.42397357 -6.03854011 0.00884689 0 0 Z " fill="#A1C7E6" transform="translate(189.8828125,12.83203125)"/>
<path d="M0 0 C8.58 0 17.16 0 26 0 C26 1.65 26 3.3 26 5 C22.7 5 19.4 5 16 5 C16 14.57 16 24.14 16 34 C14.02 34 12.04 34 10 34 C10 24.43 10 14.86 10 5 C6.7 5 3.4 5 0 5 C0 3.35 0 1.7 0 0 Z " fill="#E1E5F0" transform="translate(121,72)"/>
<path d="M0 0 C6.62163637 0.51648764 12.29007254 1.79619848 18.5 4.125 C19.74293823 4.58543701 19.74293823 4.58543701 21.01098633 5.05517578 C27.083749 7.40959072 32.47422147 10.18881201 37 15 C37 15.33 37 15.66 37 16 C30.09452761 16.20890505 23.38524109 16.10201939 16.53295898 15.28393555 C4.77269857 13.89721925 -6.92451579 13.80292363 -18.75 13.8125 C-20.07351471 13.81141235 -20.07351471 13.81141235 -21.42376709 13.81030273 C-23.98571437 13.81054087 -26.54746149 13.81934945 -29.109375 13.83203125 C-29.87128143 13.83322464 -30.63318787 13.83441803 -31.41818237 13.83564758 C-38.85878679 13.89958365 -45.97613878 14.70748296 -53.21875 16.390625 C-62.72119601 18.4726216 -72.23458544 20.53265898 -82 20 C-82 19.67 -82 19.34 -82 19 C-77.96576073 18.32343855 -73.93132767 17.64804491 -69.89672852 16.97363281 C-68.5304667 16.74509564 -67.16425393 16.51626499 -65.7980957 16.28710938 C-63.80954309 15.95361177 -61.82080329 15.62124885 -59.83203125 15.2890625 C-58.64327393 15.09006348 -57.4545166 14.89106445 -56.22973633 14.68603516 C-55.58313553 14.58243683 -54.93653473 14.4788385 -54.27033997 14.37210083 C-52.55184669 14.09044576 -50.83638899 13.79018682 -49.12260437 13.48117065 C-40.89141616 12.07312142 -32.94549654 11.73555681 -24.60546875 11.8046875 C-22.63541618 11.80893234 -22.63541618 11.80893234 -20.62556458 11.81326294 C-17.1815082 11.82079634 -13.73762818 11.84035238 -10.29364014 11.8626709 C-6.76023746 11.88335503 -3.2268055 11.89231223 0.30664062 11.90234375 C7.20449823 11.92361124 14.10224059 11.9576179 21 12 C19.61452073 7.8435622 17.44554131 7.2038634 13.69921875 5.20703125 C9.28566829 3.23338857 4.70072194 2.08072673 0 1 C0 0.67 0 0.34 0 0 Z " fill="#D3E4F3" transform="translate(240,17)"/>
<path d="M0 0 C0 0.33 0 0.66 0 1 C-1.45345825 1.05945801 -1.45345825 1.05945801 -2.9362793 1.12011719 C-24.83803337 2.04214049 -46.81902529 3.05845877 -68.35595703 7.48413086 C-71.83241643 8.1624096 -75.32990786 8.66036498 -78.8359375 9.15625 C-79.97054916 9.31704041 -79.97054916 9.31704041 -81.12808228 9.4810791 C-82.72995943 9.7071703 -84.33196254 9.93237073 -85.93408203 10.15673828 C-88.33308468 10.49410553 -90.7309659 10.83876923 -93.12890625 11.18359375 C-107.41130091 13.20666417 -121.49582721 14.17108401 -135.9375 14.0625 C-137.10990234 14.05798828 -138.28230469 14.05347656 -139.49023438 14.04882812 C-142.32688113 14.03724997 -145.16340972 14.02094971 -148 14 C-145.10818487 11.10818487 -142.97482794 11.72940861 -138.9296875 11.69140625 C-137.45963261 11.66617847 -135.98958062 11.64078179 -134.51953125 11.61523438 C-132.22087949 11.58690677 -129.92228123 11.56289478 -127.62353516 11.54370117 C-118.04396624 11.44822025 -109.05419315 10.69437374 -99.67089844 8.74194336 C-94.537834 7.70447443 -89.38758278 7.08945593 -84.1875 6.5 C-77.75497796 5.74112397 -71.35697176 4.934812 -64.9753418 3.82348633 C-43.52101002 0.10222483 -21.72430205 -0.37258038 0 0 Z " fill="#64A1D5" transform="translate(209,16)"/>
<path d="M0 0 C1.28110153 0.02009628 2.56220306 0.04019257 3.88212585 0.06089783 C5.28055027 0.08809423 6.67897247 0.11540507 8.07739258 0.14282227 C9.50799301 0.16712819 10.93860137 0.19097151 12.36921692 0.21437073 C16.13236531 0.27716473 19.89537312 0.34624456 23.65838623 0.41662598 C27.49916183 0.48735177 31.34003701 0.55214332 35.1809082 0.61743164 C42.71552355 0.74638359 50.25000027 0.88197507 57.78442383 1.02172852 C57.78442383 1.35172852 57.78442383 1.68172852 57.78442383 2.02172852 C56.25072144 2.05931274 56.25072144 2.05931274 54.68603516 2.09765625 C50.82982484 2.19305814 46.97374031 2.29293357 43.11767578 2.39404297 C41.46047951 2.43689734 39.80325292 2.47859791 38.14599609 2.51904297 C28.32717787 2.75954018 18.56957653 3.1295818 8.78442383 4.02172852 C9.45310697 7.13505099 9.45310697 7.13505099 11.84692383 8.20922852 C12.48629883 8.47735352 13.12567383 8.74547852 13.78442383 9.02172852 C13.78442383 9.68172852 13.78442383 10.34172852 13.78442383 11.02172852 C14.96004883 11.14547852 16.13567383 11.26922852 17.34692383 11.39672852 C21.32562809 11.88608786 24.96208941 12.82724901 28.78442383 14.02172852 C28.78442383 14.35172852 28.78442383 14.68172852 28.78442383 15.02172852 C22.46369867 15.38941613 16.98789909 14.0544945 10.90942383 12.39672852 C9.4959668 12.04288086 9.4959668 12.04288086 8.05395508 11.68188477 C1.57585791 9.93468013 -4.12454552 7.50454566 -9.21557617 3.02172852 C-9.21557617 2.36172852 -9.21557617 1.70172852 -9.21557617 1.02172852 C-5.88561841 -0.08825741 -3.5052855 -0.06197951 0 0 Z " fill="#A6CAE7" transform="translate(36.215576171875,24.978271484375)"/>
<path d="M0 0 C0.67305176 0.04962891 1.34610352 0.09925781 2.03955078 0.15039062 C16.56436437 1.25186437 16.56436437 1.25186437 17.9375 2.625 C19.68588835 2.7481517 21.43914504 2.80287811 23.19165039 2.83032227 C24.31273697 2.85026749 25.43382355 2.87021271 26.58888245 2.89076233 C27.8086528 2.90747482 29.02842316 2.92418732 30.28515625 2.94140625 C31.52671982 2.96218735 32.76828339 2.98296844 34.04747009 3.00437927 C37.35349123 3.05883609 40.65952245 3.10904205 43.96563721 3.15722656 C47.33717491 3.20739856 50.70862053 3.26310701 54.08007812 3.31835938 C60.69914551 3.42570038 67.3182816 3.52744198 73.9375 3.625 C73.9375 3.955 73.9375 4.285 73.9375 4.625 C51.8275 4.625 29.7175 4.625 6.9375 4.625 C12.53947753 10.22697753 17.30506832 12.24689029 24.75 14.3125 C25.93239258 14.64991211 25.93239258 14.64991211 27.13867188 14.99414062 C29.06978739 15.54421595 31.00340336 16.08550006 32.9375 16.625 C28.08778152 18.18364336 24.41390782 16.63989962 19.6875 15.1875 C18.80594238 14.9196167 17.92438477 14.6517334 17.01611328 14.37573242 C11.05713802 12.48545061 5.40617408 10.22719231 -0.1875 7.4375 C-0.85555664 7.10500244 -1.52361328 6.77250488 -2.21191406 6.42993164 C-5.41259197 4.75432714 -7.01997871 3.68878193 -9.0625 0.625 C-6.02353629 -0.89448185 -3.36200875 -0.24903769 0 0 Z " fill="#D0E3F2" transform="translate(20.0625,21.375)"/>
<path d="M0 0 C0 0.33 0 0.66 0 1 C-1.27601074 0.97905273 -2.55202148 0.95810547 -3.86669922 0.93652344 C-35.65124353 0.40373821 -35.65124353 0.40373821 -67.3125 2.8125 C-68.33425323 2.93679382 -68.33425323 2.93679382 -69.37664795 3.06359863 C-76.61843761 3.96846318 -83.52324835 5.30377287 -90.52661133 7.34204102 C-94.21838006 8.32410762 -97.89057849 8.72601989 -101.6875 9.0625 C-103.24100568 9.21623748 -104.79438935 9.37121226 -106.34765625 9.52734375 C-107.50612061 9.64118408 -107.50612061 9.64118408 -108.68798828 9.75732422 C-113.58904774 10.27175433 -118.46912577 10.96749093 -123.3515625 11.6328125 C-127.2803629 12.02821639 -131.05454801 12.06096725 -135 12 C-135 11.67 -135 11.34 -135 11 C-130.56318891 10.34937622 -126.12543787 9.70538925 -121.6875 9.0625 C-120.44419922 8.88009766 -119.20089844 8.69769531 -117.91992188 8.50976562 C-112.28964378 7.69699582 -106.69206777 6.93766845 -101.01953125 6.49609375 C-96.78904622 6.14600332 -93.0787809 5.20984559 -89 4 C-60.18623829 -1.4852983 -29.11839369 -5.00961612 0 0 Z " fill="#DAE9F5" transform="translate(229,13)"/>
<path d="M0 0 C0.83144531 0.00451172 1.66289062 0.00902344 2.51953125 0.01367188 C4.55471897 0.02536836 6.58986923 0.04330065 8.625 0.0625 C8.625 0.3925 8.625 0.7225 8.625 1.0625 C7.635 1.20945312 7.635 1.20945312 6.625 1.359375 C0.94954113 2.21660577 -4.71408923 3.11434498 -10.37109375 4.0859375 C-11.43005859 4.26672852 -12.48902344 4.44751953 -13.58007812 4.63378906 C-15.71099568 4.99881331 -17.84122842 5.36786148 -19.97070312 5.74121094 C-24.82115189 6.5694509 -29.43223588 7.31684464 -34.375 7.0625 C-34.375 7.7225 -34.375 8.3825 -34.375 9.0625 C-40.59348649 10.83934726 -47.20465062 11.04665157 -53.625 11.625 C-54.37923248 11.6935318 -55.13346497 11.7620636 -55.91055298 11.83267212 C-75.04944955 13.52273336 -94.18035353 13.35572022 -113.375 13.0625 C-113.375 12.7325 -113.375 12.4025 -113.375 12.0625 C-111.91984985 12.032771 -111.91984985 12.032771 -110.43530273 12.00244141 C-83.56105079 11.43515392 -57.51286511 9.85324478 -31.0078125 5.18359375 C-25.80342897 4.27492696 -20.6331834 3.56787616 -15.375 3.0625 C-15.375 2.4025 -15.375 1.7425 -15.375 1.0625 C-10.20182579 -0.00059567 -5.25130664 -0.05443938 0 0 Z " fill="#A8CBE7" transform="translate(192.375,28.9375)"/>
<path d="M0 0 C1.21236328 0.01353516 1.21236328 0.01353516 2.44921875 0.02734375 C3.37154297 0.04474609 3.37154297 0.04474609 4.3125 0.0625 C4.3125 0.3925 4.3125 0.7225 4.3125 1.0625 C2.0025 1.3925 -0.3075 1.7225 -2.6875 2.0625 C2.09579277 7.69126582 8.3495723 7.93773256 15.3125 9.0625 C16.51519531 9.2584375 17.71789062 9.454375 18.95703125 9.65625 C33.30816066 11.63371059 47.84875014 11.71281131 62.3125 12.0625 C62.3125 12.3925 62.3125 12.7225 62.3125 13.0625 C56.27009256 13.18822231 50.22848316 13.27781586 44.18505859 13.3371582 C42.13902491 13.36195376 40.09307632 13.3958014 38.04736328 13.43969727 C23.67050298 13.7399511 11.0811524 12.27380851 -2.6875 8.0625 C-2.6875 7.4025 -2.6875 6.7425 -2.6875 6.0625 C-5.1625 5.0725 -5.1625 5.0725 -7.6875 4.0625 C-7.6875 3.0725 -7.6875 2.0825 -7.6875 1.0625 C-4.80538698 0.10179566 -2.98899956 -0.04331883 0 0 Z " fill="#84B5DE" transform="translate(52.6875,27.9375)"/>
<path d="M0 0 C7.26153846 -0.49230769 7.26153846 -0.49230769 11 2 C11.66 2.66 12.32 3.32 13 4 C12.68762196 6.88949684 12.35661121 8.58633099 10.4375 10.8125 C6.8580787 12.55632063 3.95820158 12.19791008 0 12 C0 8.04 0 4.08 0 0 Z " fill="#284694" transform="translate(100,76)"/>
<path d="M0 0 C0 0.33 0 0.66 0 1 C-0.83402344 1.12117188 -1.66804688 1.24234375 -2.52734375 1.3671875 C-9.89640415 2.44263848 -9.89640415 2.44263848 -17.1875 3.9375 C-29.12080855 6.6847365 -41.29047326 8.24251661 -53.4375 9.6875 C-55.05289673 9.88460571 -55.05289673 9.88460571 -56.70092773 10.08569336 C-63.49880345 10.86521103 -70.15938665 11.16066558 -77 11 C-77 10.67 -77 10.34 -77 10 C-72.54225534 9.37076832 -68.08383004 8.74648745 -63.625 8.125 C-62.63558914 7.98677826 -62.63558914 7.98677826 -61.62619019 7.84576416 C-52.91934356 6.63259666 -44.21413092 5.47829104 -35.45751953 4.68408203 C-31.36972616 4.28255671 -27.87804418 3.30438743 -24 2 C-21.36520609 1.56176939 -18.77338007 1.18271654 -16.125 0.875 C-15.45597656 0.78863281 -14.78695312 0.70226563 -14.09765625 0.61328125 C-9.36988644 0.03939012 -4.76165848 -0.07456736 0 0 Z " fill="#9CC3E4" transform="translate(171,15)"/>
<path d="M0 0 C4.30764815 1.56641751 8.06171464 3.68336156 12 6 C12 6.99 12 7.98 12 9 C-7.47 9 -26.94 9 -47 9 C-47 8.67 -47 8.34 -47 8 C-29.51 7.67 -12.02 7.34 6 7 C2.5797509 3.15811388 2.5797509 3.15811388 0 2 C0 1.34 0 0.68 0 0 Z " fill="#AFCFE9" transform="translate(249,20)"/>
<path d="M0 0 C5.27315333 0.4452885 10.01770224 1.08373163 15 3 C15 3.66 15 4.32 15 5 C15.88751953 5.25523438 15.88751953 5.25523438 16.79296875 5.515625 C21.58930819 6.98660675 25.36718032 8.36718032 29 12 C29 12.66 29 13.32 29 14 C14.21867882 14.18451025 14.21867882 14.18451025 8 13 C8 12.67 8 12.34 8 12 C12.29 12 16.58 12 21 12 C19.61452073 7.8435622 17.44554131 7.2038634 13.69921875 5.20703125 C9.28566829 3.23338857 4.70072194 2.08072673 0 1 C0 0.67 0 0.34 0 0 Z " fill="#CDE1F1" transform="translate(240,17)"/>
<path d="M0 0 C1.00023193 0.00523682 2.00046387 0.01047363 3.03100586 0.01586914 C4.1105957 0.0190918 5.19018555 0.02231445 6.30249023 0.02563477 C8.00695312 0.03820312 8.00695312 0.03820312 9.74584961 0.05102539 C11.45611328 0.05779297 11.45611328 0.05779297 13.20092773 0.06469727 C16.02845312 0.07652792 18.85587601 0.09301129 21.68334961 0.11352539 C21.68334961 0.44352539 21.68334961 0.77352539 21.68334961 1.11352539 C15.24834961 1.60852539 15.24834961 1.60852539 8.68334961 2.11352539 C9.81639953 5.51267514 10.80853436 6.1660699 13.68334961 8.11352539 C8.2106549 8.44858833 4.52529172 7.72072499 -0.31665039 5.11352539 C-2.25415039 2.92602539 -2.25415039 2.92602539 -3.31665039 1.11352539 C-2.31665039 0.11352539 -2.31665039 0.11352539 0 0 Z " fill="#9FC5E5" transform="translate(36.316650390625,26.886474609375)"/>
<path d="M0 0 C8.44809724 0.66695505 15.96033249 5.27820972 22 11 C22 11.33 22 11.66 22 12 C10.2187584 12.35640731 -1.30024254 11.25940704 -13 10 C-13 9.67 -13 9.34 -13 9 C-3.94706663 8.86465714 4.97859571 9.24258075 14 10 C9.9590812 5.30732011 5.73091655 3.2349326 0 1 C0 0.67 0 0.34 0 0 Z " fill="#E7F0F8" transform="translate(255,21)"/>
<path d="M0 0 C3.46692734 3.7971109 4.51061867 8.17724141 6 13 C2.7 13 -0.6 13 -4 13 C-3.40895235 8.15340923 -2.02055843 4.39251833 0 0 Z " fill="#32509A" transform="translate(235,78)"/>
<path d="M0 0 C0.67232666 0.04890381 1.34465332 0.09780762 2.03735352 0.14819336 C7.02076197 0.52223326 11.9779369 1.01593085 16.9375 1.625 C16.9375 1.955 16.9375 2.285 16.9375 2.625 C15.80570313 2.61339844 14.67390625 2.60179687 13.5078125 2.58984375 C12.02604331 2.58046546 10.54427235 2.5713653 9.0625 2.5625 C8.31613281 2.55412109 7.56976562 2.54574219 6.80078125 2.53710938 C2.73904422 2.41811916 2.73904422 2.41811916 -1.0625 3.625 C-0.50820313 3.96273438 0.04609375 4.30046875 0.6171875 4.6484375 C1.70386719 5.31746094 1.70386719 5.31746094 2.8125 6 C3.89144531 6.66128906 3.89144531 6.66128906 4.9921875 7.3359375 C6.9375 8.625 6.9375 8.625 8.9375 10.625 C4.89043895 10.02052094 1.82985455 8.71330359 -1.75 6.75 C-2.70261719 6.23695312 -3.65523437 5.72390625 -4.63671875 5.1953125 C-7.0625 3.625 -7.0625 3.625 -9.0625 0.625 C-6.02353629 -0.89448185 -3.36200875 -0.24903769 0 0 Z " fill="#E6F0F8" transform="translate(20.0625,21.375)"/>
<path d="M0 0 C0 0.66 0 1.32 0 2 C-11.03691812 4.25572049 -21.78461253 4.20127315 -33 4 C-33 3.67 -33 3.34 -33 3 C-28.81327853 2.49333528 -24.62551367 1.99586082 -20.4375 1.5 C-19.25607422 1.35691406 -18.07464844 1.21382812 -16.85742188 1.06640625 C-11.20429736 0.40133278 -5.69356379 -0.20065423 0 0 Z " fill="#6EA8D8" transform="translate(138,22)"/>
<path d="M0 0 C6.20988129 0.44356295 10.60540561 1.91532502 16 5 C16 5.99 16 6.98 16 8 C12.07142246 9.85131483 9.01224888 10.22004943 4.6875 10.125 C3.61886719 10.10695313 2.55023438 10.08890625 1.44921875 10.0703125 C0.64097656 10.04710937 -0.16726562 10.02390625 -1 10 C-1 9.67 -1 9.34 -1 9 C4.445 8.01 4.445 8.01 10 7 C9.67 6.01 9.34 5.02 9 4 C6.90280128 2.97718482 6.90280128 2.97718482 4.4375 2.3125 C3.61121094 2.06113281 2.78492188 1.80976563 1.93359375 1.55078125 C1.29550781 1.36902344 0.65742188 1.18726562 0 1 C0 0.67 0 0.34 0 0 Z " fill="#7FB2DC" transform="translate(228,17)"/>
<path d="M0 0 C1.175625 0.268125 2.35125 0.53625 3.5625 0.8125 C9.13721489 2.05819699 14.74325613 3.13706408 20.3515625 4.21875 C23.97079644 4.99374656 27.45536738 5.94298873 31 7 C31 7.33 31 7.66 31 8 C24.50946933 8.4175726 18.90711226 6.88102973 12.6875 5.125 C11.68654297 4.85558594 10.68558594 4.58617187 9.65429688 4.30859375 C2.26215278 2.26215278 2.26215278 2.26215278 0 0 Z " fill="#B5D3EB" transform="translate(34,32)"/>
<path d="M0 0 C0.83144531 0.00451172 1.66289062 0.00902344 2.51953125 0.01367188 C4.55471897 0.02536836 6.58986923 0.04330065 8.625 0.0625 C8.625 0.3925 8.625 0.7225 8.625 1.0625 C0.54937827 2.50044854 -7.1693963 3.35849372 -15.375 3.0625 C-15.375 2.4025 -15.375 1.7425 -15.375 1.0625 C-10.20182579 -0.00059567 -5.25130664 -0.05443938 0 0 Z " fill="#8EBBE0" transform="translate(192.375,28.9375)"/>
<path d="M0 0 C0 0.33 0 0.66 0 1 C-6.435 1.495 -6.435 1.495 -13 2 C-11.86695008 5.39914975 -10.87481525 6.05254451 -8 8 C-11.95820859 7.43454163 -14.6659053 6.19097652 -18 4 C-17.67 3.01 -17.34 2.02 -17 1 C-11.33357449 -0.22517308 -5.76291482 -0.09228867 0 0 Z " fill="#92BDE1" transform="translate(58,27)"/>
<path d="M0 0 C0 0.33 0 0.66 0 1 C-8.04030671 2.77967263 -15.71017896 4.43630637 -24 4 C-24 3.67 -24 3.34 -24 3 C-22.86820313 2.79503906 -21.73640625 2.59007812 -20.5703125 2.37890625 C-19.08851239 2.10693028 -17.60674315 1.83478613 -16.125 1.5625 C-15.37863281 1.42779297 -14.63226563 1.29308594 -13.86328125 1.15429688 C-3.69682512 -0.72329187 -3.69682512 -0.72329187 0 0 Z " fill="#5F9FD4" transform="translate(198,26)"/>
<path d="M0 0 C-3.75 2 -3.75 2 -6 2 C-5.34 3.32 -4.68 4.64 -4 6 C-6.4375 5.1875 -6.4375 5.1875 -9 4 C-9.33 3.01 -9.66 2.02 -10 1 C-6.52674819 -0.1577506 -3.63932552 -0.06866652 0 0 Z " fill="#B5D3EB" transform="translate(37,25)"/>
</svg>
