<?xml version="1.0" encoding="utf-8"?>
<!-- Generator: Adobe Illustrator 26.0.1, SVG Export Plug-In . SVG Version: 6.00 Build 0)  -->
<svg version="1.1" id="Layer_1" xmlns="http://www.w3.org/2000/svg" xmlns:xlink="http://www.w3.org/1999/xlink" x="0px" y="0px"
	 viewBox="0 0 500 500" style="enable-background:new 0 0 500 500;" xml:space="preserve">
<style type="text/css">
	.st0{display:none;}
	.st1{display:inline;}
	.st2{opacity:0.61;}
	.st3{fill:#FFFFFF;}
	.st4{display:inline;opacity:0.61;}
	.st5{fill:#26569A;}
	.st6{fill:#0D9DDA;}
	.st7{fill:#FBAF3C;}
	.st8{fill:#63A5B9;}
	.st9{fill:#576EB2;}
	.st10{fill:#CD2033;}
	.st11{fill:#F58220;}
</style>
<g id="watermark_1_" class="st0">
	<g class="st1">
		<g id="watermark" class="st2">
			<g>
				<g>
					<g>
						<g>
							<polygon class="st3" points="213.76,461.17 208.2,474.02 205.27,474.02 199.73,461.17 202.94,461.17 206.85,470.35 
								210.81,461.17 							"/>
						</g>
						<g>
							<path class="st3" d="M223.51,469.74h-7.47c0.28,1.23,1.32,1.98,2.83,1.98c1.05,0,1.8-0.31,2.48-0.95l1.52,1.65
								c-0.92,1.05-2.29,1.6-4.07,1.6c-3.41,0-5.63-2.15-5.63-5.08c0-2.95,2.26-5.08,5.27-5.08c2.9,0,5.14,1.95,5.14,5.12
								C223.56,469.19,223.53,469.5,223.51,469.74 M216,468.07h4.86c-0.2-1.25-1.14-2.06-2.42-2.06
								C217.14,466.02,216.2,466.81,216,468.07"/>
						</g>
						<g>
							<path class="st3" d="M224.74,468.93c0-2.97,2.29-5.08,5.51-5.08c2.07,0,3.71,0.9,4.42,2.51l-2.22,1.19
								c-0.53-0.94-1.32-1.36-2.22-1.36c-1.45,0-2.59,1.01-2.59,2.73c0,1.73,1.14,2.73,2.59,2.73c0.9,0,1.69-0.4,2.22-1.36
								l2.22,1.21c-0.72,1.58-2.35,2.5-4.42,2.5C227.03,474.02,224.74,471.91,224.74,468.93"/>
						</g>
						<g>
							<path class="st3" d="M242.83,473.39c-0.59,0.42-1.45,0.62-2.33,0.62c-2.33,0-3.69-1.19-3.69-3.54v-4.06h-1.52v-2.2h1.52v-2.4
								h2.86v2.4h2.46v2.2h-2.46v4.02c0,0.84,0.46,1.3,1.23,1.3c0.42,0,0.84-0.13,1.16-0.37L242.83,473.39z"/>
						</g>
					</g>
					<g>
						<path class="st3" d="M262.47,464v2.64c-0.24-0.02-0.42-0.04-0.64-0.04c-1.58,0-2.62,0.86-2.62,2.75v4.66h-2.86v-9.87h2.73v1.3
							C259.78,464.49,260.95,464,262.47,464"/>
					</g>
					<g>
						<path class="st3" d="M263.3,472.53l1.01-2.24c1.08,0.79,2.7,1.34,4.24,1.34c1.76,0,2.48-0.59,2.48-1.38
							c0-2.4-7.47-0.75-7.47-5.52c0-2.18,1.76-4,5.41-4c1.61,0,3.27,0.39,4.46,1.14l-0.92,2.26c-1.19-0.68-2.42-1.01-3.56-1.01
							c-1.76,0-2.44,0.66-2.44,1.47c0,2.37,7.47,0.73,7.47,5.45c0,2.15-1.78,3.98-5.45,3.98
							C266.49,474.02,264.44,473.41,263.3,472.53"/>
					</g>
					<g>
						<path class="st3" d="M285.43,469.74h-7.47c0.28,1.23,1.32,1.98,2.83,1.98c1.05,0,1.8-0.31,2.48-0.95l1.52,1.65
							c-0.92,1.05-2.29,1.6-4.07,1.6c-3.41,0-5.63-2.15-5.63-5.08c0-2.95,2.26-5.08,5.27-5.08c2.9,0,5.14,1.95,5.14,5.12
							C285.48,469.19,285.45,469.5,285.43,469.74 M277.92,468.07h4.86c-0.2-1.25-1.14-2.06-2.42-2.06
							C279.06,466.02,278.13,466.81,277.92,468.07"/>
					</g>
					<g>
						<path class="st3" d="M297.01,469.74h-7.47c0.28,1.23,1.32,1.98,2.83,1.98c1.05,0,1.8-0.31,2.48-0.95l1.52,1.65
							c-0.92,1.05-2.29,1.6-4.07,1.6c-3.41,0-5.63-2.15-5.63-5.08c0-2.95,2.26-5.08,5.27-5.08c2.9,0,5.14,1.95,5.14,5.12
							C297.06,469.19,297.02,469.5,297.01,469.74 M289.5,468.07h4.86c-0.2-1.25-1.14-2.06-2.42-2.06
							C290.64,466.02,289.7,466.81,289.5,468.07"/>
					</g>
					<g>
						<polygon class="st3" points="303.21,470.14 301.83,471.5 301.83,474.02 298.97,474.02 298.97,460.4 301.83,460.4 
							301.83,468.11 306.02,464.14 309.43,464.14 305.32,468.33 309.8,474.02 306.33,474.02 						"/>
					</g>
					<g>
						<path class="st3" d="M256.6,475.36L256.6,475.36l-2.86-2.86c-0.44,0.51-0.95,0.94-1.53,1.28c-0.09,0.07-0.19,0.14-0.28,0.2
							l3.03,3.03c0.46,0.46,1.19,0.46,1.65,0C257.06,476.55,257.06,475.81,256.6,475.36"/>
					</g>
					<g>
						<path class="st3" d="M249.98,463.24c0.22-0.17,0.49-0.28,0.8-0.28c0.04,0,0.08,0,0.12,0.01c-0.21-0.16-0.48-0.25-0.76-0.25
							c-0.39,0-0.74,0.18-0.98,0.46c-0.05,0-0.1,0.01-0.15,0.01c0.04-0.08,0.06-0.16,0.06-0.25c0-0.23-0.14-0.43-0.35-0.52
							c0.09,0.13,0.14,0.28,0.14,0.44c0,0.12-0.03,0.24-0.08,0.34c-2.81,0.2-5.03,2.54-5.03,5.4c0,2.99,2.43,5.42,5.42,5.42
							c2.99,0,5.42-2.43,5.42-5.42C254.6,465.88,252.59,463.64,249.98,463.24 M247.98,464.66c0.43,0,0.84,0.11,1.2,0.31
							c0.37-0.24,0.82-0.39,1.3-0.39c0.71,0,1.35,0.31,1.78,0.81c-0.44-0.38-1-0.61-1.63-0.61c-0.45,0-0.87,0.12-1.23,0.33
							c-0.08,0.05-0.16,0.1-0.23,0.15c-0.07-0.05-0.13-0.09-0.2-0.13c-0.37-0.22-0.8-0.34-1.26-0.34c-0.3,0-0.59,0.05-0.85,0.15
							C247.2,464.75,247.58,464.66,247.98,464.66 M251.77,469.1c0.12,0.3,0.18,0.63,0.18,0.98c0,1.53-1.24,2.78-2.78,2.78
							c-1.53,0-2.78-1.24-2.78-2.78c0-0.35,0.07-0.67,0.18-0.98c-0.62-0.38-1.03-1.06-1.03-1.85c0-1.2,0.97-2.17,2.17-2.17
							c0.56,0,1.08,0.22,1.46,0.57c0.39-0.35,0.9-0.57,1.46-0.57c1.2,0,2.17,0.97,2.17,2.17
							C252.81,468.03,252.39,468.72,251.77,469.1"/>
					</g>
					<g>
						<path class="st3" d="M251.67,467.06c0,0.5-0.4,0.9-0.9,0.9c-0.5,0-0.9-0.4-0.9-0.9s0.4-0.9,0.9-0.9c0.1,0,0.2,0.02,0.29,0.05
							c-0.03,0.06-0.05,0.13-0.05,0.2c0,0.27,0.22,0.49,0.49,0.49c0.05,0,0.1-0.01,0.15-0.02
							C251.66,466.94,251.67,467,251.67,467.06"/>
					</g>
					<g>
						<path class="st3" d="M248.26,467.06c0,0.38-0.31,0.68-0.68,0.68c-0.38,0-0.68-0.31-0.68-0.68s0.31-0.68,0.68-0.68
							c0.08,0,0.15,0.01,0.22,0.04c-0.02,0.05-0.03,0.1-0.03,0.15c0,0.21,0.17,0.37,0.37,0.37c0.04,0,0.08-0.01,0.11-0.02
							C248.25,466.97,248.26,467.02,248.26,467.06"/>
					</g>
					<g>
						<g>
							<g>
								<rect x="242.91" y="467.83" class="st3" width="0.62" height="0.62"/>
							</g>
							<g>
								<rect x="254.83" y="467.83" class="st3" width="0.62" height="0.62"/>
							</g>
							<g>
								<path class="st3" d="M255.21,468.08h-0.14c0-3.25-2.64-5.89-5.89-5.89c-3.25,0-5.89,2.64-5.89,5.89h-0.14
									c0-1.61,0.63-3.12,1.77-4.26c1.14-1.14,2.65-1.77,4.26-1.77c1.61,0,3.12,0.63,4.26,1.77
									C254.58,464.96,255.21,466.47,255.21,468.08"/>
							</g>
						</g>
						<g>
							<rect x="248.87" y="461.81" class="st3" width="0.62" height="0.62"/>
						</g>
						<g>
							<rect x="244.95" y="462.05" class="st3" width="8.45" height="0.14"/>
						</g>
						<g>
							<path class="st3" d="M245.17,462.15c0,0.11-0.09,0.2-0.2,0.2c-0.11,0-0.2-0.09-0.2-0.2c0-0.11,0.09-0.2,0.2-0.2
								C245.09,461.95,245.17,462.04,245.17,462.15"/>
						</g>
						<g>
							<path class="st3" d="M253.6,462.15c0,0.11-0.09,0.2-0.2,0.2c-0.11,0-0.2-0.09-0.2-0.2c0-0.11,0.09-0.2,0.2-0.2
								C253.51,461.95,253.6,462.04,253.6,462.15"/>
						</g>
					</g>
				</g>
				<g>
					<path class="st3" d="M314.36,473.41c0,1.56-2.36,1.56-2.36,0C311.99,471.85,314.36,471.85,314.36,473.41z"/>
				</g>
				<g>
					<g>
						<g>
							<path class="st3" d="M161.74,466.55l1.77,6.09l1.85-6.09h2.22l-2.82,8.14h-2.33l-0.84-2.4l-0.72-2.71l-0.72,2.71l-0.84,2.4
								h-2.33l-2.84-8.14h2.23l1.85,6.09l1.76-6.09H161.74z"/>
						</g>
						<g>
							<path class="st3" d="M176.71,466.55l1.77,6.09l1.85-6.09h2.22l-2.82,8.14h-2.33l-0.84-2.4l-0.72-2.71l-0.72,2.71l-0.84,2.4
								h-2.33l-2.84-8.14h2.23l1.85,6.09l1.76-6.09H176.71z"/>
						</g>
						<g>
							<path class="st3" d="M191.69,466.55l1.77,6.09l1.85-6.09h2.22l-2.82,8.14h-2.33l-0.84-2.4l-0.72-2.71l-0.72,2.71l-0.84,2.4
								h-2.33l-2.84-8.14h2.23l1.85,6.09l1.76-6.09H191.69z"/>
						</g>
					</g>
					<g>
						<path class="st3" d="M200.91,473.52c0,1.56-2.36,1.56-2.36,0C198.54,471.96,200.91,471.96,200.91,473.52z"/>
					</g>
					<g>
						<path class="st3" d="M322.71,473.41c-0.94,0.92-1.92,1.28-3.12,1.28c-2.35,0-4.3-1.41-4.3-4.28s1.95-4.28,4.3-4.28
							c1.15,0,2.03,0.33,2.92,1.2l-1.26,1.33c-0.48-0.43-1.07-0.64-1.62-0.64c-1.35,0-2.33,0.98-2.33,2.4c0,1.54,1.05,2.36,2.3,2.36
							c0.64,0,1.28-0.18,1.77-0.67L322.71,473.41z"/>
					</g>
					<g>
						<path class="st3" d="M331.81,470.47c0,2.33-1.59,4.22-4.22,4.22c-2.63,0-4.2-1.89-4.2-4.22c0-2.31,1.61-4.22,4.18-4.22
							C330.15,466.26,331.81,468.16,331.81,470.47z M325.39,470.47c0,1.23,0.74,2.38,2.2,2.38c1.46,0,2.2-1.15,2.2-2.38
							c0-1.21-0.85-2.4-2.2-2.4C326.14,468.08,325.39,469.26,325.39,470.47z"/>
					</g>
					<g>
						<path class="st3" d="M338.57,474.69v-4.33c0-1.07-0.56-2.03-1.66-2.03c-1.08,0-1.72,0.97-1.72,2.03v4.33h-2v-8.11h1.85
							l0.15,0.98c0.43-0.82,1.36-1.12,2.13-1.12c0.97,0,1.94,0.39,2.4,1.51c0.72-1.15,1.66-1.48,2.71-1.48
							c2.3,0,3.43,1.41,3.43,3.84v4.37h-2v-4.37c0-1.07-0.44-1.97-1.53-1.97c-1.08,0-1.76,0.94-1.76,2v4.33H338.57z"/>
					</g>
				</g>
			</g>
		</g>
		<g class="st2">
			<g>
				<g>
					<path class="st3" d="M345.99,431.3c-0.01-1.22-0.96-2.12-2.19-2.14c-0.92-0.01-0.83,0.12-0.83-0.87c0-1.1-0.01-2.19,0-3.29
						c0-0.38-0.11-0.69-0.36-0.98c-2.34-2.67-4.68-5.34-7.02-8.01c-0.12-0.14-0.28-0.24-0.41-0.37c-6.21,0-12.43,0-18.64,0
						c-0.79,0.29-1.14,0.87-1.14,1.71c0.01,3.75,0,7.5,0,11.24c0,0.56,0,0.59-0.55,0.55c-1.5-0.1-2.52,0.99-2.5,2.49
						c0.04,3.48,0.01,6.95,0.01,10.43c0,1.58,0.87,2.44,2.45,2.45c0.58,0,0.58,0,0.58,0.6c0,2.22,0,4.44,0,6.66
						c0,1.19,0.58,1.77,1.77,1.77c8.01,0,16.03,0,24.04,0c1.17,0,1.76-0.58,1.76-1.75c0-2.26,0-4.51,0-6.77c0-0.51,0-0.51,0.52-0.52
						c0.27,0,0.54,0.01,0.81-0.06c1-0.25,1.69-1.04,1.69-2.07C346,438.7,346.01,435,345.99,431.3z M317.54,417.16
						c5.34,0,10.67,0,16.01,0c0.55,0,0.55,0.01,0.55,0.56c0,2.24,0,4.49,0,6.73c0,0.81,0.25,1.06,1.06,1.06c1.91,0,3.82,0,5.73,0
						c0.46,0,0.48,0.02,0.48,0.48c0,0.89,0,1.77,0,2.66c0,0.48-0.02,0.5-0.5,0.5c-3.89,0-7.79,0-11.68,0c-3.88,0-7.76,0-11.65,0
						c-0.55,0-0.55,0-0.55-0.56c0-3.62,0-7.25,0-10.87C316.99,417.17,316.99,417.16,317.54,417.16z M340.82,451.58
						c-3.88,0-7.77,0-11.65,0c-3.87,0-7.74,0-11.61,0c-0.57,0-0.57,0-0.57-0.58c0-2,0-3.99,0-5.99c0-0.46,0.02-0.49,0.48-0.49
						c7.8,0,15.61,0,23.41,0c0.48,0,0.5,0.02,0.5,0.5c0,2,0,3.99,0,5.99C341.37,451.57,341.37,451.58,340.82,451.58z"/>
				</g>
				<g>
					<g>
						<rect x="327.42" y="417.05" class="st3" width="1.76" height="1.05"/>
					</g>
					<g>
						<rect x="325.66" y="418.11" class="st3" width="1.76" height="1.05"/>
					</g>
					<g>
						<rect x="327.42" y="419.16" class="st3" width="1.76" height="1.05"/>
					</g>
					<g>
						<rect x="325.66" y="420.22" class="st3" width="1.76" height="1.05"/>
					</g>
					<g>
						<rect x="327.42" y="421.27" class="st3" width="1.76" height="1.05"/>
					</g>
					<g>
						<rect x="325.66" y="422.32" class="st3" width="1.76" height="1.05"/>
					</g>
					<g>
						<rect x="327.42" y="423.38" class="st3" width="1.76" height="1.05"/>
					</g>
					<g>
						<rect x="325.66" y="424.43" class="st3" width="1.76" height="1.05"/>
					</g>
					<g>
						<rect x="327.42" y="425.49" class="st3" width="1.76" height="1.05"/>
					</g>
					<g>
						<rect x="325.66" y="426.54" class="st3" width="1.76" height="1.05"/>
					</g>
					<g>
						<rect x="327.42" y="427.59" class="st3" width="1.76" height="1.05"/>
					</g>
					<g>
						<rect x="325.66" y="428.65" class="st3" width="1.76" height="1.05"/>
					</g>
				</g>
			</g>
			<g>
				<path class="st3" d="M187.64,431.3c-0.01-1.22-0.96-2.12-2.19-2.14c-0.92-0.01-0.83,0.12-0.83-0.87c0-1.1-0.01-2.19,0-3.29
					c0-0.38-0.11-0.69-0.36-0.98c-2.34-2.67-4.68-5.34-7.02-8.01c-0.12-0.14-0.28-0.24-0.41-0.37c-6.21,0-12.43,0-18.64,0
					c-0.79,0.29-1.14,0.87-1.14,1.71c0.01,3.75,0,7.5,0,11.24c0,0.56,0,0.59-0.55,0.55c-1.5-0.1-2.52,0.99-2.5,2.49
					c0.04,3.48,0.01,6.95,0.01,10.43c0,1.58,0.87,2.44,2.45,2.45c0.58,0,0.58,0,0.58,0.6c0,2.22,0,4.44,0,6.66
					c0,1.19,0.58,1.77,1.77,1.77c8.01,0,16.03,0,24.04,0c1.17,0,1.76-0.58,1.76-1.75c0-2.26,0-4.51,0-6.77c0-0.51,0-0.51,0.52-0.52
					c0.27,0,0.54,0.01,0.81-0.06c1-0.25,1.69-1.04,1.69-2.07C187.65,438.7,187.65,435,187.64,431.3z M159.19,417.16
					c5.34,0,10.67,0,16.01,0c0.55,0,0.55,0.01,0.55,0.56c0,2.24,0,4.49,0,6.73c0,0.81,0.25,1.06,1.06,1.06c1.91,0,3.82,0,5.73,0
					c0.46,0,0.48,0.02,0.48,0.48c0,0.89,0,1.77,0,2.66c0,0.48-0.02,0.5-0.5,0.5c-3.89,0-7.79,0-11.68,0c-3.88,0-7.76,0-11.65,0
					c-0.55,0-0.55,0-0.55-0.56c0-3.62,0-7.25,0-10.87C158.64,417.17,158.64,417.16,159.19,417.16z M182.47,451.58
					c-3.88,0-7.77,0-11.65,0c-3.87,0-7.74,0-11.61,0c-0.57,0-0.57,0-0.57-0.58c0-2,0-3.99,0-5.99c0-0.46,0.02-0.49,0.48-0.49
					c7.8,0,15.61,0,23.41,0c0.48,0,0.5,0.02,0.5,0.5c0,2,0,3.99,0,5.99C183.02,451.57,183.02,451.58,182.47,451.58z"/>
			</g>
			<g>
				<path class="st3" d="M159.78,440.67v-7.9h2.78c0.38,0,0.73,0.06,1.05,0.18c0.33,0.12,0.61,0.29,0.85,0.51
					c0.24,0.22,0.43,0.48,0.57,0.79c0.14,0.31,0.21,0.64,0.21,1.01c0,0.37-0.07,0.72-0.21,1.02c-0.14,0.31-0.33,0.57-0.57,0.79
					c-0.24,0.22-0.53,0.39-0.85,0.51c-0.33,0.12-0.68,0.18-1.05,0.18h-1.29v2.9H159.78z M162.58,436.36c0.39,0,0.68-0.11,0.88-0.33
					c0.2-0.22,0.3-0.47,0.3-0.76c0-0.14-0.02-0.28-0.07-0.41c-0.05-0.13-0.12-0.25-0.22-0.35c-0.1-0.1-0.22-0.18-0.37-0.24
					c-0.15-0.06-0.32-0.09-0.52-0.09h-1.31v2.17H162.58z"/>
				<path class="st3" d="M166.31,432.77h1.73l3.18,5.29h0.09l-0.09-1.52v-3.77h1.48v7.9h-1.57l-3.35-5.59h-0.09l0.09,1.52v4.07
					h-1.47V432.77z"/>
				<path class="st3" d="M177.92,436.33h3.87c0.02,0.09,0.04,0.2,0.05,0.32c0.01,0.12,0.02,0.25,0.02,0.38
					c0,0.51-0.08,0.99-0.23,1.43c-0.15,0.45-0.4,0.85-0.73,1.2c-0.35,0.38-0.78,0.67-1.27,0.87c-0.49,0.21-1.06,0.31-1.69,0.31
					c-0.57,0-1.11-0.1-1.62-0.31c-0.51-0.21-0.95-0.49-1.32-0.86c-0.38-0.37-0.67-0.8-0.89-1.31c-0.22-0.5-0.33-1.05-0.33-1.65
					c0-0.6,0.11-1.15,0.33-1.65c0.22-0.5,0.52-0.94,0.89-1.31c0.38-0.37,0.82-0.65,1.32-0.86c0.51-0.21,1.05-0.31,1.62-0.31
					c0.64,0,1.21,0.11,1.71,0.33c0.5,0.22,0.94,0.53,1.3,0.92l-1.03,1c-0.26-0.27-0.54-0.48-0.86-0.62
					c-0.32-0.14-0.7-0.22-1.14-0.22c-0.36,0-0.7,0.06-1.03,0.19c-0.32,0.13-0.61,0.31-0.85,0.55c-0.24,0.24-0.44,0.52-0.58,0.85
					c-0.14,0.33-0.22,0.71-0.22,1.12c0,0.41,0.07,0.79,0.22,1.12c0.14,0.33,0.34,0.62,0.58,0.85c0.25,0.24,0.53,0.42,0.86,0.55
					c0.32,0.13,0.67,0.19,1.04,0.19c0.42,0,0.77-0.06,1.06-0.18c0.29-0.12,0.54-0.28,0.74-0.47c0.15-0.13,0.27-0.3,0.38-0.5
					c0.11-0.2,0.19-0.43,0.25-0.68h-2.48V436.33z"/>
			</g>
			<g>
				<path class="st3" d="M224.02,431.3c-0.01-1.22-0.96-2.12-2.19-2.14c-0.92-0.01-0.83,0.12-0.83-0.87c0-1.1-0.01-2.19,0-3.29
					c0-0.38-0.11-0.69-0.36-0.98c-2.34-2.67-4.68-5.34-7.02-8.01c-0.12-0.14-0.28-0.24-0.41-0.37c-6.21,0-12.43,0-18.64,0
					c-0.79,0.29-1.14,0.87-1.14,1.71c0.01,3.75,0,7.5,0,11.24c0,0.56,0,0.59-0.55,0.55c-1.5-0.1-2.52,0.99-2.5,2.49
					c0.04,3.48,0.01,6.95,0.01,10.43c0,1.58,0.87,2.44,2.45,2.45c0.58,0,0.58,0,0.58,0.6c0,2.22,0,4.44,0,6.66
					c0,1.19,0.58,1.77,1.77,1.77c8.01,0,16.03,0,24.04,0c1.17,0,1.76-0.58,1.76-1.75c0-2.26,0-4.51,0-6.77c0-0.51,0-0.51,0.52-0.52
					c0.27,0,0.54,0.01,0.81-0.06c1-0.25,1.69-1.04,1.69-2.07C224.03,438.7,224.04,435,224.02,431.3z M195.57,417.16
					c5.34,0,10.67,0,16.01,0c0.55,0,0.55,0.01,0.55,0.56c0,2.24,0,4.49,0,6.73c0,0.81,0.25,1.06,1.06,1.06c1.91,0,3.82,0,5.73,0
					c0.46,0,0.48,0.02,0.48,0.48c0,0.89,0,1.77,0,2.66c0,0.48-0.02,0.5-0.5,0.5c-3.89,0-7.79,0-11.68,0c-3.88,0-7.76,0-11.65,0
					c-0.55,0-0.55,0-0.55-0.56c0-3.62,0-7.25,0-10.87C195.02,417.17,195.02,417.16,195.57,417.16z M218.85,451.58
					c-3.88,0-7.77,0-11.65,0c-3.87,0-7.74,0-11.61,0c-0.57,0-0.57,0-0.57-0.58c0-2,0-3.99,0-5.99c0-0.46,0.02-0.49,0.48-0.49
					c7.8,0,15.61,0,23.41,0c0.48,0,0.5,0.02,0.5,0.5c0,2,0,3.99,0,5.99C219.41,451.57,219.4,451.58,218.85,451.58z"/>
			</g>
			<g>
				<path class="st3" d="M205.11,432.77h1.7l2.97,7.9h-1.64l-0.65-1.89h-3.04l-0.65,1.89h-1.64L205.11,432.77z M207,437.42
					l-0.71-1.97l-0.29-0.96h-0.09l-0.29,0.96l-0.71,1.97H207z"/>
				<path class="st3" d="M211.33,434.54c-0.13,0-0.24-0.02-0.36-0.07c-0.11-0.05-0.21-0.11-0.3-0.2c-0.08-0.08-0.15-0.18-0.2-0.29
					c-0.05-0.11-0.07-0.23-0.07-0.36s0.02-0.25,0.07-0.36c0.05-0.11,0.11-0.21,0.2-0.29c0.08-0.08,0.18-0.15,0.3-0.2
					c0.11-0.05,0.23-0.07,0.36-0.07c0.26,0,0.48,0.09,0.66,0.27c0.18,0.18,0.28,0.4,0.28,0.66s-0.09,0.48-0.28,0.66
					C211.81,434.45,211.59,434.54,211.33,434.54z M210.61,440.67v-5.4h1.44v5.4H210.61z"/>
			</g>
			<g>
				<path class="st3" d="M261.04,431.3c-0.01-1.22-0.96-2.12-2.19-2.14c-0.92-0.01-0.83,0.12-0.83-0.87c0-1.1-0.01-2.19,0-3.29
					c0-0.38-0.11-0.69-0.36-0.98c-2.34-2.67-4.68-5.34-7.02-8.01c-0.12-0.14-0.28-0.24-0.41-0.37c-6.21,0-12.43,0-18.64,0
					c-0.79,0.29-1.14,0.87-1.14,1.71c0.01,3.75,0,7.5,0,11.24c0,0.56,0,0.59-0.55,0.55c-1.5-0.1-2.52,0.99-2.5,2.49
					c0.04,3.48,0.01,6.95,0.01,10.43c0,1.58,0.87,2.44,2.45,2.45c0.58,0,0.58,0,0.58,0.6c0,2.22,0,4.44,0,6.66
					c0,1.19,0.58,1.77,1.77,1.77c8.01,0,16.03,0,24.04,0c1.17,0,1.76-0.58,1.76-1.75c0-2.26,0-4.51,0-6.77c0-0.51,0-0.51,0.52-0.52
					c0.27,0,0.54,0.01,0.81-0.06c1-0.25,1.69-1.04,1.69-2.07C261.06,438.7,261.06,435,261.04,431.3z M232.59,417.16
					c5.34,0,10.67,0,16.01,0c0.55,0,0.55,0.01,0.55,0.56c0,2.24,0,4.49,0,6.73c0,0.81,0.25,1.06,1.06,1.06c1.91,0,3.82,0,5.73,0
					c0.46,0,0.48,0.02,0.48,0.48c0,0.89,0,1.77,0,2.66c0,0.48-0.02,0.5-0.5,0.5c-3.89,0-7.79,0-11.68,0c-3.88,0-7.76,0-11.65,0
					c-0.55,0-0.55,0-0.55-0.56c0-3.62,0-7.25,0-10.87C232.04,417.17,232.05,417.16,232.59,417.16z M255.88,451.58
					c-3.88,0-7.77,0-11.65,0c-3.87,0-7.74,0-11.61,0c-0.57,0-0.57,0-0.57-0.58c0-2,0-3.99,0-5.99c0-0.46,0.02-0.49,0.48-0.49
					c7.8,0,15.61,0,23.41,0c0.48,0,0.5,0.02,0.5,0.5c0,2,0,3.99,0,5.99C256.43,451.57,256.43,451.58,255.88,451.58z"/>
			</g>
			<g>
				<path class="st3" d="M236.36,440.84c-0.34,0-0.66-0.05-0.97-0.14c-0.31-0.1-0.59-0.24-0.85-0.43c-0.26-0.19-0.48-0.42-0.67-0.7
					c-0.19-0.28-0.34-0.6-0.45-0.97l1.4-0.55c0.1,0.4,0.28,0.73,0.54,0.99c0.26,0.26,0.6,0.39,1.01,0.39c0.15,0,0.3-0.02,0.45-0.06
					c0.14-0.04,0.27-0.1,0.39-0.18s0.2-0.17,0.27-0.29c0.07-0.12,0.1-0.25,0.1-0.41c0-0.15-0.03-0.28-0.08-0.4
					c-0.05-0.12-0.14-0.23-0.26-0.33c-0.12-0.1-0.28-0.2-0.47-0.3c-0.19-0.1-0.44-0.19-0.72-0.3l-0.49-0.18
					c-0.21-0.07-0.43-0.17-0.65-0.3c-0.22-0.12-0.41-0.28-0.59-0.45c-0.18-0.18-0.32-0.38-0.44-0.62c-0.11-0.24-0.17-0.51-0.17-0.81
					c0-0.31,0.06-0.6,0.18-0.87c0.12-0.27,0.29-0.5,0.52-0.71c0.22-0.2,0.49-0.36,0.8-0.47s0.66-0.17,1.04-0.17
					c0.4,0,0.74,0.05,1.03,0.16c0.29,0.11,0.54,0.24,0.74,0.41c0.2,0.17,0.37,0.35,0.49,0.55c0.12,0.2,0.22,0.39,0.28,0.56
					l-1.31,0.55c-0.07-0.22-0.21-0.42-0.4-0.6c-0.2-0.18-0.46-0.26-0.8-0.26c-0.32,0-0.59,0.08-0.8,0.23
					c-0.21,0.15-0.32,0.35-0.32,0.59c0,0.24,0.1,0.44,0.31,0.6c0.21,0.17,0.53,0.33,0.98,0.48l0.5,0.17
					c0.32,0.11,0.6,0.24,0.87,0.38c0.26,0.14,0.49,0.31,0.67,0.51c0.19,0.2,0.33,0.42,0.43,0.68c0.1,0.25,0.15,0.55,0.15,0.88
					c0,0.41-0.08,0.77-0.25,1.06c-0.17,0.3-0.38,0.54-0.63,0.73c-0.26,0.19-0.55,0.33-0.87,0.43
					C236.99,440.8,236.67,440.84,236.36,440.84z"/>
				<path class="st3" d="M239.52,432.77h1.61l1.63,4.75l0.29,1.01h0.09l0.31-1.01l1.7-4.75h1.61l-2.88,7.9h-1.57L239.52,432.77z"/>
				<path class="st3" d="M251.1,436.33h3.87c0.02,0.09,0.04,0.2,0.05,0.32c0.02,0.12,0.02,0.25,0.02,0.38
					c0,0.51-0.08,0.99-0.23,1.43c-0.15,0.45-0.4,0.85-0.73,1.2c-0.35,0.38-0.78,0.67-1.27,0.87c-0.49,0.21-1.06,0.31-1.69,0.31
					c-0.57,0-1.11-0.1-1.62-0.31c-0.51-0.21-0.95-0.49-1.32-0.86c-0.38-0.37-0.67-0.8-0.89-1.31c-0.22-0.5-0.33-1.05-0.33-1.65
					c0-0.6,0.11-1.15,0.33-1.65c0.22-0.5,0.52-0.94,0.89-1.31c0.38-0.37,0.82-0.65,1.32-0.86c0.51-0.21,1.05-0.31,1.62-0.31
					c0.64,0,1.21,0.11,1.71,0.33c0.5,0.22,0.94,0.53,1.3,0.92l-1.03,1c-0.26-0.27-0.54-0.48-0.86-0.62
					c-0.32-0.14-0.69-0.22-1.14-0.22c-0.36,0-0.7,0.06-1.03,0.19c-0.32,0.13-0.61,0.31-0.85,0.55c-0.24,0.24-0.44,0.52-0.58,0.85
					c-0.14,0.33-0.22,0.71-0.22,1.12c0,0.41,0.07,0.79,0.22,1.12c0.14,0.33,0.34,0.62,0.58,0.85c0.25,0.24,0.53,0.42,0.85,0.55
					c0.32,0.13,0.67,0.19,1.04,0.19c0.42,0,0.77-0.06,1.06-0.18c0.29-0.12,0.54-0.28,0.74-0.47c0.15-0.13,0.27-0.3,0.38-0.5
					c0.11-0.2,0.19-0.43,0.25-0.68h-2.48V436.33z"/>
			</g>
			<g>
				<path class="st3" d="M297.3,431.3c-0.01-1.22-0.96-2.12-2.19-2.14c-0.92-0.01-0.83,0.12-0.83-0.87c0-1.1-0.01-2.19,0-3.29
					c0-0.38-0.11-0.69-0.36-0.98c-2.34-2.67-4.68-5.34-7.02-8.01c-0.12-0.14-0.28-0.24-0.41-0.37c-6.21,0-12.43,0-18.64,0
					c-0.79,0.29-1.14,0.87-1.14,1.71c0.01,3.75,0,7.5,0,11.24c0,0.56,0,0.59-0.55,0.55c-1.5-0.1-2.52,0.99-2.5,2.49
					c0.04,3.48,0.01,6.95,0.01,10.43c0,1.58,0.87,2.44,2.45,2.45c0.58,0,0.58,0,0.58,0.6c0,2.22,0,4.44,0,6.66
					c0,1.19,0.58,1.77,1.77,1.77c8.01,0,16.03,0,24.04,0c1.17,0,1.76-0.58,1.76-1.75c0-2.26,0-4.51,0-6.77c0-0.51,0-0.51,0.52-0.52
					c0.27,0,0.54,0.01,0.81-0.06c1-0.25,1.69-1.04,1.69-2.07C297.32,438.7,297.32,435,297.3,431.3z M268.85,417.16
					c5.34,0,10.67,0,16.01,0c0.55,0,0.55,0.01,0.55,0.56c0,2.24,0,4.49,0,6.73c0,0.81,0.25,1.06,1.06,1.06c1.91,0,3.82,0,5.73,0
					c0.46,0,0.48,0.02,0.48,0.48c0,0.89,0,1.77,0,2.66c0,0.48-0.02,0.5-0.5,0.5c-3.89,0-7.79,0-11.68,0c-3.88,0-7.76,0-11.65,0
					c-0.55,0-0.55,0-0.55-0.56c0-3.62,0-7.25,0-10.87C268.3,417.17,268.3,417.16,268.85,417.16z M292.13,451.58
					c-3.88,0-7.77,0-11.65,0c-3.87,0-7.74,0-11.61,0c-0.57,0-0.57,0-0.57-0.58c0-2,0-3.99,0-5.99c0-0.46,0.02-0.49,0.48-0.49
					c7.8,0,15.61,0,23.41,0c0.48,0,0.5,0.02,0.5,0.5c0,2,0,3.99,0,5.99C292.69,451.57,292.68,451.58,292.13,451.58z"/>
			</g>
			<g>
				<path class="st3" d="M272.97,434.18v1.83h3.17v1.41h-3.17v1.83h3.52v1.41h-5.01v-7.9h5.01v1.41H272.97z"/>
				<path class="st3" d="M277.85,440.67v-7.9h2.78c0.38,0,0.73,0.06,1.05,0.18c0.33,0.12,0.61,0.29,0.85,0.51
					c0.24,0.22,0.43,0.48,0.57,0.79c0.14,0.31,0.21,0.64,0.21,1.01c0,0.37-0.07,0.72-0.21,1.02c-0.14,0.31-0.33,0.57-0.57,0.79
					c-0.24,0.22-0.53,0.39-0.85,0.51c-0.33,0.12-0.68,0.18-1.05,0.18h-1.29v2.9H277.85z M280.65,436.36c0.39,0,0.68-0.11,0.88-0.33
					c0.2-0.22,0.3-0.47,0.3-0.76c0-0.14-0.02-0.28-0.07-0.41c-0.05-0.13-0.12-0.25-0.22-0.35c-0.1-0.1-0.22-0.18-0.37-0.24
					c-0.15-0.06-0.32-0.09-0.52-0.09h-1.31v2.17H280.65z"/>
				<path class="st3" d="M286.8,440.84c-0.34,0-0.66-0.05-0.97-0.14c-0.31-0.1-0.59-0.24-0.85-0.43c-0.26-0.19-0.48-0.42-0.67-0.7
					c-0.19-0.28-0.34-0.6-0.45-0.97l1.4-0.55c0.1,0.4,0.28,0.73,0.54,0.99c0.26,0.26,0.6,0.39,1.01,0.39c0.15,0,0.3-0.02,0.45-0.06
					c0.14-0.04,0.27-0.1,0.39-0.18c0.11-0.08,0.2-0.17,0.27-0.29c0.07-0.12,0.1-0.25,0.1-0.41c0-0.15-0.03-0.28-0.08-0.4
					c-0.05-0.12-0.14-0.23-0.26-0.33c-0.12-0.1-0.28-0.2-0.47-0.3c-0.19-0.1-0.44-0.19-0.72-0.3l-0.49-0.18
					c-0.21-0.07-0.43-0.17-0.65-0.3c-0.22-0.12-0.41-0.28-0.59-0.45c-0.18-0.18-0.32-0.38-0.44-0.62c-0.11-0.24-0.17-0.51-0.17-0.81
					c0-0.31,0.06-0.6,0.18-0.87c0.12-0.27,0.29-0.5,0.52-0.71c0.22-0.2,0.49-0.36,0.81-0.47c0.31-0.11,0.66-0.17,1.04-0.17
					c0.4,0,0.74,0.05,1.03,0.16c0.29,0.11,0.54,0.24,0.74,0.41c0.2,0.17,0.37,0.35,0.49,0.55c0.12,0.2,0.22,0.39,0.28,0.56
					l-1.31,0.55c-0.07-0.22-0.21-0.42-0.4-0.6c-0.19-0.18-0.46-0.26-0.8-0.26c-0.32,0-0.59,0.08-0.81,0.23
					c-0.21,0.15-0.32,0.35-0.32,0.59c0,0.24,0.1,0.44,0.31,0.6c0.21,0.17,0.53,0.33,0.98,0.48l0.5,0.17
					c0.32,0.11,0.6,0.24,0.87,0.38c0.26,0.14,0.49,0.31,0.67,0.51c0.19,0.2,0.33,0.42,0.43,0.68c0.1,0.25,0.15,0.55,0.15,0.88
					c0,0.41-0.08,0.77-0.25,1.06c-0.17,0.3-0.38,0.54-0.63,0.73c-0.26,0.19-0.55,0.33-0.87,0.43
					C287.42,440.8,287.11,440.84,286.8,440.84z"/>
			</g>
			<g>
				<path class="st3" d="M321.39,439.17l4-4.99h-3.83v-1.41h5.56v1.5l-3.96,4.99h4v1.41h-5.78V439.17z"/>
				<path class="st3" d="M328.41,432.77h1.49v7.9h-1.49V432.77z"/>
				<path class="st3" d="M331.49,440.67v-7.9h2.78c0.38,0,0.73,0.06,1.05,0.18c0.33,0.12,0.61,0.29,0.85,0.51s0.43,0.48,0.57,0.79
					c0.14,0.31,0.21,0.64,0.21,1.01c0,0.37-0.07,0.72-0.21,1.02c-0.14,0.31-0.33,0.57-0.57,0.79c-0.24,0.22-0.53,0.39-0.85,0.51
					c-0.33,0.12-0.68,0.18-1.05,0.18h-1.29v2.9H331.49z M334.29,436.36c0.39,0,0.68-0.11,0.88-0.33c0.2-0.22,0.3-0.47,0.3-0.76
					c0-0.14-0.02-0.28-0.07-0.41c-0.05-0.13-0.12-0.25-0.22-0.35c-0.1-0.1-0.22-0.18-0.37-0.24c-0.15-0.06-0.32-0.09-0.52-0.09
					h-1.31v2.17H334.29z"/>
			</g>
		</g>
		<g class="st2">
			<path class="st3" d="M300.13,433.27h9.07v2.24h-9.07V433.27z M300.13,437.14h9.07v2.24h-9.07V437.14z"/>
		</g>
	</g>
	<g class="st4">
		<path class="st3" d="M156.76,478.88h1.61c1.26,0,2.11,0.81,2.11,1.97c0,1.16-0.85,1.97-2.11,1.97h-1.61V478.88z M158.34,482.46
			c1.05,0,1.73-0.67,1.73-1.61c0-0.95-0.68-1.61-1.73-1.61h-1.17v3.23H158.34z"/>
		<path class="st3" d="M165.14,480.85c0-1.15,0.88-2.01,2.07-2.01c1.18,0,2.07,0.85,2.07,2.01c0,1.16-0.89,2.01-2.07,2.01
			C166.02,482.86,165.14,482,165.14,480.85z M168.87,480.85c0-0.94-0.7-1.64-1.65-1.64c-0.95,0-1.66,0.69-1.66,1.64
			c0,0.94,0.71,1.63,1.66,1.63C168.16,482.49,168.87,481.79,168.87,480.85z"/>
		<path class="st3" d="M179.6,478.88l-1.33,3.95h-0.44l-1.16-3.37l-1.16,3.37h-0.43l-1.33-3.95h0.43l1.14,3.39l1.18-3.39h0.39
			l1.16,3.41l1.16-3.41H179.6z"/>
		<path class="st3" d="M187.73,478.88v3.95h-0.34l-2.54-3.2v3.2h-0.42v-3.95h0.34l2.54,3.2v-3.2H187.73z"/>
		<path class="st3" d="M193.09,478.88h0.42v3.59h2.21v0.36h-2.63V478.88z"/>
		<path class="st3" d="M200.06,480.85c0-1.15,0.88-2.01,2.07-2.01c1.18,0,2.07,0.85,2.07,2.01c0,1.16-0.89,2.01-2.07,2.01
			C200.94,482.86,200.06,482,200.06,480.85z M203.79,480.85c0-0.94-0.7-1.64-1.65-1.64c-0.95,0-1.66,0.69-1.66,1.64
			c0,0.94,0.71,1.63,1.66,1.63C203.08,482.49,203.79,481.79,203.79,480.85z"/>
		<path class="st3" d="M211.64,481.77h-2.2l-0.47,1.05h-0.43l1.8-3.95h0.41l1.8,3.95h-0.44L211.64,481.77z M211.48,481.43
			l-0.95-2.12l-0.95,2.12H211.48z"/>
		<path class="st3" d="M217.28,478.88h1.61c1.26,0,2.11,0.81,2.11,1.97c0,1.16-0.85,1.97-2.11,1.97h-1.61V478.88z M218.86,482.46
			c1.05,0,1.73-0.67,1.73-1.61c0-0.95-0.68-1.61-1.73-1.61h-1.17v3.23H218.86z"/>
		<path class="st3" d="M234.04,481.77h-2.2l-0.47,1.05h-0.43l1.8-3.95h0.41l1.8,3.95h-0.44L234.04,481.77z M233.89,481.43
			l-0.95-2.12l-0.95,2.12H233.89z"/>
		<path class="st3" d="M239.68,478.88h0.42v3.59h2.21v0.36h-2.63V478.88z"/>
		<path class="st3" d="M247.08,478.88h0.42v3.59h2.21v0.36h-2.63V478.88z"/>
		<path class="st3" d="M260.45,479.24v1.55h2.04v0.36h-2.04v1.67h-0.42v-3.95h2.71v0.36H260.45z"/>
		<path class="st3" d="M267.68,478.88h0.42v3.95h-0.42V478.88z"/>
		<path class="st3" d="M273.46,478.88h0.42v3.59h2.21v0.36h-2.63V478.88z"/>
		<path class="st3" d="M283.64,482.46v0.36h-2.79v-3.95h2.71v0.36h-2.29v1.4h2.04V481h-2.04v1.47H283.64z"/>
		<path class="st3" d="M294.67,479.24v1.55h2.04v0.36h-2.04v1.67h-0.42v-3.95h2.71v0.36H294.67z"/>
		<path class="st3" d="M301.5,480.85c0-1.15,0.88-2.01,2.07-2.01c1.18,0,2.07,0.85,2.07,2.01c0,1.16-0.89,2.01-2.07,2.01
			C302.38,482.86,301.5,482,301.5,480.85z M305.23,480.85c0-0.94-0.7-1.64-1.65-1.64c-0.95,0-1.66,0.69-1.66,1.64
			c0,0.94,0.71,1.63,1.66,1.63C304.52,482.49,305.23,481.79,305.23,480.85z"/>
		<path class="st3" d="M313.35,482.82l-0.9-1.27c-0.1,0.01-0.2,0.02-0.32,0.02h-1.06v1.25h-0.42v-3.95h1.48c1,0,1.61,0.51,1.61,1.35
			c0,0.62-0.33,1.05-0.9,1.24l0.96,1.35H313.35z M313.33,480.23c0-0.63-0.42-0.99-1.21-0.99h-1.05v1.98h1.05
			C312.91,481.22,313.33,480.85,313.33,480.23z"/>
		<path class="st3" d="M322.91,478.88v3.95h-0.4v-3.16l-1.55,2.66h-0.2l-1.55-2.64v3.14h-0.4v-3.95h0.34l1.71,2.93l1.7-2.93H322.91z
			"/>
		<path class="st3" d="M330.74,481.77h-2.2l-0.47,1.05h-0.43l1.8-3.95h0.41l1.8,3.95h-0.44L330.74,481.77z M330.59,481.43
			l-0.95-2.12l-0.95,2.12H330.59z"/>
		<path class="st3" d="M336.96,479.24h-1.39v-0.36h3.19v0.36h-1.39v3.59h-0.42V479.24z"/>
		<path class="st3" d="M343.06,482.35l0.16-0.32c0.28,0.28,0.78,0.48,1.3,0.48c0.74,0,1.06-0.31,1.06-0.7
			c0-1.08-2.43-0.42-2.43-1.88c0-0.58,0.45-1.08,1.45-1.08c0.45,0,0.91,0.13,1.22,0.35l-0.14,0.33c-0.34-0.22-0.73-0.33-1.08-0.33
			c-0.72,0-1.04,0.32-1.04,0.72c0,1.08,2.43,0.43,2.43,1.87c0,0.58-0.46,1.08-1.47,1.08C343.94,482.86,343.36,482.65,343.06,482.35z
			"/>
	</g>
</g>
<g>
</g>
<g id="Isolation_Mode">
	<g>
		<path class="st5" d="M210.84,284.78l-0.6,1.94c-0.68-0.15-1.34-0.21-1.97-0.19c-1.99,0.02-2.98,1.11-2.98,3.27v1.34h4.07v2.07
			h-4.07v14.11h-2.71V293.2h-2.83v-1.72l2.83-0.35v-1.4c0-1.72,0.45-3.04,1.37-3.96c0.91-0.92,2.27-1.4,4.07-1.41
			C209.06,284.36,210,284.5,210.84,284.78L210.84,284.78z"/>
		<path class="st5" d="M212.3,294.76c0-1.19-0.08-2.39-0.23-3.62h2.57c0.1,0.72,0.18,1.58,0.22,2.57h0.06
			c0.93-2.02,2.63-3.02,5.09-3.02c0.17,0,0.48,0.03,0.93,0.1l-0.16,2.32c-0.21-0.04-0.54-0.06-0.99-0.06
			c-1.54,0-2.73,0.52-3.56,1.55c-0.83,1.04-1.24,2.38-1.24,4.04v8.67h-2.71L212.3,294.76L212.3,294.76z"/>
		<path class="st5" d="M238.18,299.18c0,1.68-0.32,3.16-0.97,4.47c-0.65,1.3-1.58,2.31-2.79,3.04c-1.22,0.72-2.68,1.08-4.37,1.08
			c-1.69,0-3.12-0.37-4.35-1.1c-1.23-0.73-2.16-1.75-2.8-3.04s-0.95-2.77-0.95-4.45c0-2.58,0.71-4.64,2.13-6.18
			c1.42-1.54,3.41-2.3,5.98-2.3c1.72,0,3.19,0.36,4.4,1.06c1.22,0.71,2.15,1.7,2.78,2.98C237.86,296.01,238.18,297.49,238.18,299.18
			L238.18,299.18z M224.73,299.18c0,1.93,0.44,3.48,1.32,4.66c0.88,1.18,2.21,1.76,3.99,1.76c1.78,0,3.15-0.58,4.04-1.76
			c0.89-1.18,1.34-2.73,1.34-4.66s-0.45-3.46-1.34-4.61s-2.23-1.72-4.04-1.72s-3.13,0.58-4.01,1.72S224.73,297.25,224.73,299.18z"/>
		<path class="st5" d="M241.67,294.76c0-1.19-0.08-2.39-0.23-3.62h2.57c0.1,0.58,0.18,1.34,0.22,2.29h0.06
			c0.51-0.8,1.22-1.47,2.15-1.97s1.99-0.76,3.19-0.76c1.38,0,2.5,0.29,3.37,0.87c0.87,0.58,1.5,1.38,1.9,2.4h0.06
			c0.55-1.02,1.3-1.82,2.26-2.4c0.95-0.58,2.09-0.87,3.43-0.87s2.45,0.29,3.33,0.87c0.89,0.58,1.54,1.34,1.97,2.29
			c0.42,0.94,0.64,1.97,0.64,3.1v10.36h-2.71v-9.98c0-1.25-0.31-2.3-0.91-3.15c-0.6-0.85-1.57-1.27-2.91-1.27
			c-0.98,0-1.82,0.25-2.51,0.76c-0.7,0.51-1.23,1.19-1.59,2.03c-0.36,0.85-0.54,1.76-0.54,2.73v8.87h-2.71v-10.04
			c0-1.23-0.31-2.26-0.93-3.1c-0.61-0.84-1.58-1.26-2.89-1.26c-1.4,0-2.51,0.49-3.33,1.47c-0.82,0.99-1.24,2.2-1.24,3.64v9.28h-2.71
			v-12.56L241.67,294.76z"/>
		<path class="st5" d="M319.97,305.22l1.43-1.78c0.91,0.72,1.85,1.24,2.83,1.55c0.98,0.31,2.08,0.48,3.31,0.48
			c1.53,0,2.76-0.36,3.7-1.06c0.94-0.71,1.41-1.75,1.41-3.1c0-0.95-0.22-1.73-0.66-2.32c-0.45-0.59-1.06-1.07-1.84-1.43
			c-0.79-0.36-1.82-0.71-3.12-1.05c-2.09-0.55-3.67-1.3-4.7-2.24c-1.04-0.94-1.56-2.26-1.56-3.96c0-1.88,0.71-3.36,2.11-4.42
			c1.4-1.06,3.2-1.59,5.38-1.59c1.38,0,2.62,0.18,3.73,0.54c1.11,0.36,2.15,0.89,3.1,1.59l-1.27,1.84
			c-0.89-0.58-1.77-0.99-2.65-1.27c-0.88-0.28-1.85-0.41-2.91-0.41c-1.42,0-2.57,0.31-3.43,0.91c-0.87,0.6-1.3,1.47-1.3,2.62
			c0,1.14,0.4,2.01,1.2,2.59c0.79,0.58,2.09,1.11,3.89,1.57c2.27,0.59,3.98,1.4,5.15,2.42c1.16,1.02,1.75,2.52,1.75,4.51
			c0,1.44-0.36,2.66-1.06,3.66c-0.71,0.99-1.67,1.75-2.88,2.24c-1.2,0.5-2.57,0.75-4.07,0.75
			C324.58,307.85,322.06,306.97,319.97,305.22z"/>
		<path class="st5" d="M337.93,302.89c0-2.09,0.76-3.55,2.27-4.37c1.52-0.81,3.8-1.22,6.85-1.22c0.74,0,1.3,0.01,1.68,0.03v-0.93
			c0-1.2-0.33-2.11-0.99-2.71c-0.65-0.59-1.67-0.89-3.02-0.89c-1.72,0-3.33,0.45-4.86,1.37l-0.95-1.82
			c1.82-1.13,3.81-1.68,5.98-1.68c2.27,0,3.93,0.53,4.97,1.59s1.57,2.67,1.57,4.83v6.61c0,1.17,0.07,2.36,0.22,3.6h-2.48
			c-0.15-0.93-0.22-1.67-0.22-2.19h-0.1c-0.59,0.87-1.34,1.53-2.24,1.97c-0.9,0.45-2.06,0.66-3.48,0.66c-1.57,0-2.83-0.42-3.79-1.26
			C338.4,305.67,337.92,304.46,337.93,302.89L337.93,302.89z M348.73,301.34v-2.09l-1.43-0.03c-1.59,0-2.85,0.1-3.8,0.31
			c-0.94,0.21-1.64,0.58-2.09,1.08s-0.68,1.22-0.68,2.13s0.28,1.65,0.83,2.15s1.32,0.75,2.29,0.75s1.89-0.22,2.64-0.65
			c0.74-0.44,1.3-0.98,1.68-1.64C348.55,302.68,348.74,302.01,348.73,301.34L348.73,301.34z"/>
		<path class="st5" d="M359.22,284.81v22.51h-2.71v-22.51C356.52,284.81,359.22,284.81,359.22,284.81z"/>
		<path class="st5" d="M378.1,300.2h-12.02c0.1,1.65,0.6,2.97,1.49,3.94c0.89,0.98,2.16,1.47,3.81,1.47c0.98,0,1.85-0.13,2.63-0.4
			c0.78-0.26,1.55-0.66,2.34-1.2l1.2,1.75c-0.91,0.65-1.88,1.15-2.91,1.49c-1.03,0.34-2.16,0.51-3.42,0.51
			c-2.48,0-4.42-0.79-5.8-2.36c-1.39-1.57-2.09-3.66-2.09-6.27c0-1.68,0.3-3.15,0.89-4.42c0.59-1.27,1.46-2.26,2.59-2.98
			c1.13-0.71,2.5-1.06,4.08-1.06c2.36,0,4.15,0.76,5.38,2.29c1.24,1.53,1.86,3.55,1.86,6.07c0,0.51-0.02,0.89-0.06,1.14L378.1,300.2
			z M375.53,298.1c-0.04-1.61-0.45-2.91-1.24-3.87c-0.79-0.98-1.92-1.47-3.4-1.47s-2.67,0.51-3.5,1.51c-0.83,1-1.27,2.29-1.34,3.83
			H375.53L375.53,298.1z"/>
		<path class="st5" d="M392.06,292.4l-1.2,1.68c-1.25-0.87-2.61-1.3-4.07-1.3c-1.02,0-1.82,0.19-2.38,0.58
			c-0.58,0.39-0.86,0.95-0.86,1.67c0,0.53,0.11,0.97,0.35,1.3c0.24,0.34,0.63,0.63,1.18,0.86c0.55,0.24,1.35,0.48,2.42,0.73
			c1.65,0.4,2.88,0.99,3.67,1.76c0.79,0.78,1.2,1.79,1.2,3.04c0,1.59-0.59,2.83-1.78,3.7c-1.19,0.88-2.65,1.32-4.39,1.32
			c-2.33,0-4.28-0.63-5.85-1.88l1.24-1.68c0.72,0.49,1.43,0.85,2.13,1.08c0.7,0.24,1.49,0.35,2.38,0.35c1.08,0,1.94-0.24,2.56-0.7
			c0.63-0.46,0.93-1.13,0.93-2c0-0.58-0.11-1.03-0.35-1.38c-0.24-0.35-0.62-0.64-1.16-0.87c-0.54-0.24-1.35-0.49-2.43-0.76
			c-1.68-0.43-2.89-0.99-3.66-1.72c-0.76-0.72-1.14-1.72-1.14-2.98c0-1.38,0.53-2.48,1.61-3.29s2.49-1.22,4.24-1.22
			C388.77,290.69,390.56,291.27,392.06,292.4L392.06,292.4z"/>
		<path class="st5" d="M405.59,284.78l-0.6,1.94c-0.68-0.15-1.34-0.21-1.97-0.19c-1.99,0.02-2.98,1.11-2.98,3.27v1.34h4.07v2.07
			h-4.07v14.11h-2.71V293.2h-2.83v-1.72l2.83-0.35v-1.4c0-1.72,0.45-3.04,1.37-3.96c0.91-0.92,2.27-1.4,4.07-1.41
			C403.8,284.36,404.75,284.5,405.59,284.78L405.59,284.78z"/>
		<path class="st5" d="M422.16,299.18c0,1.68-0.32,3.16-0.97,4.47c-0.65,1.3-1.58,2.31-2.79,3.04c-1.22,0.72-2.68,1.08-4.37,1.08
			s-3.12-0.37-4.35-1.1c-1.23-0.73-2.16-1.75-2.8-3.04c-0.64-1.29-0.95-2.77-0.95-4.45c0-2.58,0.71-4.64,2.13-6.18
			s3.41-2.3,5.98-2.3c1.72,0,3.19,0.36,4.4,1.06c1.22,0.71,2.15,1.7,2.78,2.98C421.84,296.01,422.16,297.49,422.16,299.18
			L422.16,299.18z M408.71,299.18c0,1.93,0.44,3.48,1.32,4.66c0.88,1.18,2.21,1.76,3.99,1.76s3.15-0.58,4.04-1.76
			c0.89-1.18,1.34-2.73,1.34-4.66s-0.45-3.46-1.34-4.61c-0.89-1.14-2.23-1.72-4.04-1.72c-1.81,0-3.13,0.58-4.01,1.72
			S408.71,297.25,408.71,299.18L408.71,299.18z"/>
		<path class="st5" d="M425.66,294.76c0-1.19-0.08-2.39-0.23-3.62H428c0.1,0.72,0.18,1.58,0.22,2.57h0.06
			c0.93-2.02,2.63-3.02,5.09-3.02c0.17,0,0.48,0.03,0.92,0.1l-0.16,2.32c-0.21-0.04-0.54-0.06-0.99-0.06
			c-1.54,0-2.73,0.52-3.56,1.55c-0.83,1.04-1.24,2.38-1.24,4.04v8.67h-2.71L425.66,294.76L425.66,294.76z"/>
		<path class="st5" d="M443.29,290.69c1.02,0,1.99,0.16,2.91,0.46c0.92,0.31,1.75,0.73,2.46,1.29l-1.08,1.88
			c-1.23-0.91-2.66-1.37-4.29-1.37c-1.74,0-3.05,0.57-3.94,1.7c-0.89,1.13-1.34,2.65-1.34,4.56s0.45,3.38,1.34,4.53
			c0.89,1.15,2.19,1.74,3.91,1.74c1.47,0,2.91-0.45,4.35-1.37l0.99,1.91c-1.61,1.17-3.46,1.75-5.53,1.75
			c-1.82,0-3.32-0.41-4.49-1.22c-1.17-0.81-2.01-1.87-2.53-3.16s-0.78-2.68-0.78-4.16c0-2.58,0.71-4.65,2.13-6.2
			c1.42-1.54,3.38-2.32,5.88-2.32L443.29,290.69z"/>
		<path class="st5" d="M465.33,300.2h-12.02c0.1,1.65,0.6,2.97,1.49,3.94c0.89,0.98,2.16,1.47,3.81,1.47c0.98,0,1.85-0.13,2.63-0.4
			c0.78-0.26,1.55-0.66,2.34-1.2l1.2,1.75c-0.91,0.65-1.88,1.15-2.91,1.49c-1.03,0.34-2.16,0.51-3.42,0.51
			c-2.48,0-4.42-0.79-5.8-2.36s-2.09-3.66-2.09-6.27c0-1.68,0.3-3.15,0.89-4.42c0.59-1.27,1.46-2.26,2.59-2.98
			c1.13-0.71,2.5-1.06,4.08-1.06c2.36,0,4.15,0.76,5.38,2.29c1.24,1.53,1.86,3.55,1.86,6.07c0,0.51-0.02,0.89-0.06,1.14
			L465.33,300.2z M462.75,298.1c-0.04-1.61-0.45-2.91-1.24-3.87c-0.79-0.98-1.92-1.47-3.4-1.47s-2.67,0.51-3.5,1.51
			c-0.83,1-1.27,2.29-1.34,3.83H462.75L462.75,298.1z"/>
		<path class="st6" d="M291.64,287.11c0.65-0.69,1.42-1.23,2.29-1.59c0.86-0.38,1.78-0.58,2.71-0.58c1.25,0,2.47,0.35,3.53,0.99
			c1.07,0.65,1.95,1.57,2.55,2.67c1.1-0.49,2.28-0.74,3.48-0.75c2.29,0,4.48,0.92,6.09,2.56c1.61,1.63,2.52,3.86,2.52,6.17
			c0,2.31-0.91,4.53-2.52,6.17c-1.61,1.63-3.8,2.56-6.09,2.56c-0.56,0-1.13-0.06-1.67-0.19c-0.77,1.4-2.05,2.46-3.57,2.94
			c-1.53,0.47-3.18,0.35-4.63-0.34c-0.55,1.34-1.5,2.47-2.71,3.23c-1.2,0.79-2.62,1.2-4.05,1.15c-1.42-0.02-2.81-0.47-3.96-1.32
			c-1.16-0.84-2.04-2.02-2.53-3.37c-0.45,0.1-0.92,0.15-1.38,0.14c-1.16-0.02-2.3-0.35-3.31-0.94c-1-0.6-1.83-1.46-2.41-2.48
			s-0.88-2.18-0.89-3.36c0-1.18,0.3-2.34,0.87-3.36c0.58-1.02,1.42-1.87,2.43-2.45c-0.74-1.74-0.83-3.69-0.24-5.5
			c0.59-1.79,1.81-3.31,3.41-4.27c1.62-0.97,3.53-1.29,5.38-0.92c1.86,0.32,3.53,1.34,4.67,2.84l0,0L291.64,287.11z"/>
		<g>
			<polygon class="st7" points="57.2,210.08 44.99,210.08 44.99,197.88 41.18,197.88 41.18,210.08 28.98,210.08 28.98,213.89 
				41.18,213.89 41.18,226.1 44.99,226.1 44.99,213.89 57.2,213.89 			"/>
			<polygon class="st8" points="106.97,210.08 94.77,210.08 94.77,197.88 90.96,197.88 90.96,210.08 78.75,210.08 78.75,213.89 
				90.96,213.89 90.96,226.1 94.77,226.1 94.77,213.89 106.97,213.89 			"/>
			<polygon class="st8" points="39.8,233.91 31.73,233.91 31.73,225.85 29.06,225.85 29.06,233.91 21,233.91 21,236.57 
				29.06,236.57 29.06,244.64 31.73,244.64 31.73,236.57 39.8,236.57 			"/>
			<polygon class="st9" points="116.09,233.51 107.86,233.51 107.86,225.27 104.39,225.27 104.39,233.51 96.15,233.51 96.15,236.97 
				104.39,236.97 104.39,245.21 107.86,245.21 107.86,236.97 116.09,236.97 			"/>
			<polygon class="st5" points="106.98,256.19 94.83,256.19 94.83,244.04 90.9,244.04 90.9,256.19 78.75,256.19 78.75,260.12 
				90.9,260.12 90.9,272.26 94.83,272.26 94.83,260.12 106.98,260.12 			"/>
			<polygon class="st10" points="57.2,256.19 45.05,256.19 45.05,244.04 41.12,244.04 41.12,256.19 28.98,256.19 28.98,260.12 
				41.12,260.12 41.12,272.26 45.05,272.26 45.05,260.12 57.2,260.12 			"/>
			<polygon class="st8" points="77.37,195.96 69.31,195.96 69.31,187.9 66.64,187.9 66.64,195.96 58.58,195.96 58.58,198.63 
				66.64,198.63 66.64,206.69 69.31,206.69 69.31,198.63 77.37,198.63 			"/>
			<polygon class="st9" points="77.94,271.29 69.71,271.29 69.71,263.06 66.24,263.06 66.24,271.29 58.01,271.29 58.01,274.76 
				66.24,274.76 66.24,282.99 69.71,282.99 69.71,274.76 77.94,274.76 			"/>
			<polygon class="st11" points="84.93,232.64 70.58,232.64 70.58,218.29 65.37,218.29 65.37,232.64 51.02,232.64 51.02,237.85 
				65.37,237.85 65.37,252.19 70.58,252.19 70.58,237.85 84.93,237.85 			"/>
		</g>
		<path class="st5" d="M269.84,226.61c-1.65,0-4.21,0.34-7.11,1.47v-15.22h-6.15l0.17,41.5c3.67,1.24,7.17,1.93,10.73,1.93
			c10.28,0,16.11-5.48,16.11-14.87S278.05,226.61,269.84,226.61L269.84,226.61z M268.11,250.64c-1.71,0-3.48-0.35-5.38-1.04v-15.85
			c1.56-0.72,3.69-1.49,5.93-1.49c5.17,0,8.47,3.46,8.47,9.22C277.14,247.25,273.84,250.64,268.11,250.64L268.11,250.64z"/>
		<rect x="307.15" y="207.03" class="st5" width="6.08" height="54.47"/>
		<path class="st5" d="M352.12,226.69c-8.33,0-13.78,5.99-14.07,14.42c-0.26,7.81,4.3,14.4,13.67,15.31
			c4.77,0.46,8.56-0.32,12.19-2.09v-5.8c-2.76,1.73-7.85,2.55-11.46,2.27c-4.34-0.33-7.5-2.84-8-8.12h21.02
			C365.91,233.14,360.85,226.68,352.12,226.69L352.12,226.69z M344.83,238.2c1.2-3.8,4.68-6.11,8.26-5.87
			c3.56,0.23,5.56,2.16,5.72,5.87H344.83L344.83,238.2z"/>
		<path class="st5" d="M446.22,245.25v-18.02h-6.15v18.78c0,6.27,4.87,10.11,12.61,10.11c7.74,0,12.61-3.83,12.61-10.11v-18.78
			h-6.15v18.02c0,4.41-2.6,6.37-6.46,6.37C448.82,251.62,446.21,249.65,446.22,245.25L446.22,245.25z"/>
		<path class="st5" d="M220.85,226.48v2.08c-2.05-1.34-4.34-1.95-7.11-1.95c-8.2,0-13.75,5.77-13.75,14.82s5.83,14.9,16.11,14.87
			c3.9-0.01,8.15-0.81,10.73-1.93l0.17-27.89L220.85,226.48L220.85,226.48z M220.74,249.97c-2.16,0.55-3.87,0.65-5.26,0.67
			c-5.74,0.08-9.03-3.29-9.03-9.15c0-5.86,3.31-9.22,8.47-9.22c2.07,0,3.97,0.64,5.93,1.99L220.74,249.97L220.74,249.97z"/>
		<path class="st5" d="M410.09,226.48v2.08c-2.05-1.34-4.35-1.95-7.11-1.95c-8.21,0-13.75,5.77-13.75,14.82s5.83,14.9,16.11,14.87
			c3.9-0.01,8.15-0.81,10.73-1.93l0.17-27.89L410.09,226.48L410.09,226.48z M409.97,249.97c-2.16,0.55-4.05,0.67-5.26,0.67
			c-5.74,0.01-9.03-3.29-9.03-9.15c0-5.86,3.31-9.22,8.47-9.22c2.07,0,3.97,0.64,5.93,1.99L409.97,249.97L409.97,249.97z"/>
		<polygon class="st5" points="155.25,232.1 138.8,232.1 138.8,237.78 155.25,237.78 155.25,256.51 161.33,256.51 161.33,237.78 
			177.77,237.78 177.77,232.1 161.33,232.1 161.33,214.83 155.25,214.83 		"/>
		<path class="st5" d="M475.42,226.98h-0.02c-2,0-3.61,1.62-3.61,3.65c0,2.02,1.62,3.67,3.61,3.67s3.6-1.61,3.6-3.67
			S477.41,226.98,475.42,226.98z M475.42,233.73c-1.62,0-2.93-1.36-2.93-3.1c0-1.74,1.32-3.08,2.91-3.08h0.02
			c1.62,0,2.91,1.38,2.91,3.1C478.34,232.37,477.04,233.75,475.42,233.73L475.42,233.73z"/>
		<path class="st5" d="M476.75,231.75c-0.08-0.6-0.32-0.93-0.68-0.99v-0.03c0.44-0.13,0.79-0.45,0.79-0.99
			c0-0.38-0.13-0.66-0.38-0.84c-0.24-0.17-0.65-0.31-1.27-0.31c-0.49,0-0.81,0.05-1.15,0.1v4.07h0.65v-1.75h0.45
			c0.52,0,0.78,0.19,0.88,0.72c0.08,0.53,0.17,0.91,0.28,1.04h0.68C476.95,232.63,476.85,232.38,476.75,231.75L476.75,231.75z
			 M475.2,230.5h-0.47v-1.38c0.11-0.02,0.26-0.03,0.47-0.03c0.73,0,0.99,0.36,0.99,0.72C476.18,230.31,475.73,230.5,475.2,230.5z"/>
	</g>
</g>
</svg>
